<?xml version="1.0" encoding="UTF-8" standalone="no"?>
<!-- Created with Inkscape (http://www.inkscape.org/) -->

<svg
   version="1.1"
   id="svg1"
   width="433.25732"
   height="411.90533"
   viewBox="0 0 433.25732 411.90533"
   xmlns="http://www.w3.org/2000/svg"
   xmlns:svg="http://www.w3.org/2000/svg">
  <defs
     id="defs1" />
  <g
     id="g1">
    <path
       id="path1"
       d="M 0,0 -64.4698,-60.58116"
       style="fill:none;stroke:#000000;stroke-width:0.79701;stroke-linecap:butt;stroke-linejoin:miter;stroke-miterlimit:10;stroke-dasharray:none;stroke-opacity:1"
       transform="matrix(1.3333333,0,0,-1.3333333,155.02933,303.224)" />
    <path
       id="path2"
       d="M 4.66248,0 C 3.28098,0.25902 1.0361,1.0361 -0.51805,1.94269 V -1.94269 C 1.0361,-1.0361 3.28098,-0.25902 4.66248,0"
       style="fill:#000000;fill-opacity:1;fill-rule:nonzero;stroke:none"
       transform="matrix(-0.9716,0.913,0.913,0.9716,69.0696,383.99888)" />
    <path
       id="path3"
       d="m 2.8330402,-6.2277321 c 0,-0.2008929 -0.140625,-0.3616072 -0.3683036,-0.3616072 -0.2745536,0 -0.5424107,0.2611607 -0.5424107,0.5290179 0,0.1941964 0.140625,0.3616071 0.3816964,0.3616071 0.2276786,0 0.5290179,-0.2276786 0.5290179,-0.5290178 z M 2.0763438,-2.4844286 C 2.190183,-2.772375 2.190183,-2.7924643 2.2906295,-3.0603214 2.3709866,-3.2612143 2.424558,-3.3951429 2.424558,-3.5893393 c 0,-0.4486607 -0.3214285,-0.8169643 -0.8169642,-0.8169643 -0.93750005,0 -1.31919648,1.4464286 -1.31919648,1.5334822 0,0.1004464 0.10044643,0.1004464 0.12053572,0.1004464 0.10044642,0 0.10714285,-0.020089 0.16071428,-0.1741071 0.26785714,-0.9375 0.66964288,-1.2388393 1.00446428,-1.2388393 0.080357,0 0.2477679,0 0.2477679,0.3214285 0,0.2075893 -0.066964,0.4151786 -0.1071429,0.515625 -0.080357,0.2611608 -0.5290178,1.4129465 -0.6897321,1.8415179 -0.10044646,0.2611607 -0.22767861,0.58928571 -0.22767861,0.796875 0,0.46875 0.34151791,0.81696429 0.81696431,0.81696429 0.9375,0 1.3058036,-1.43973219 1.3058036,-1.53348219 0,-0.1004464 -0.087054,-0.1004464 -0.1205358,-0.1004464 -0.1004464,0 -0.1004464,0.033482 -0.1473214,0.1808036 -0.1808036,0.62946427 -0.5089286,1.23883927 -1.0178571,1.23883927 -0.1674107,0 -0.2410715,-0.10044643 -0.2410715,-0.328125 0,-0.25446428 0.060268,-0.39508928 0.2879465,-0.99776787 z m 0,0"
       style="fill:#000000;fill-opacity:1;fill-rule:nonzero;stroke:none"
       aria-label="i"
       transform="matrix(2.3333333,0,0,2.3333333,56.010667,400.172)" />
    <path
       id="path4"
       d="M 0,0 181.83534,-22.63493"
       style="fill:none;stroke:#000000;stroke-width:0.79701;stroke-linecap:butt;stroke-linejoin:miter;stroke-miterlimit:10;stroke-dasharray:none;stroke-opacity:1"
       transform="matrix(1.3333333,0,0,-1.3333333,155.02933,303.224)" />
    <path
       id="path5"
       d="M 4.66248,0 C 3.28098,0.25902 1.0361,1.0361 -0.51805,1.94269 V -1.94269 C 1.0361,-1.0361 3.28098,-0.25902 4.66248,0"
       style="fill:#000000;fill-opacity:1;fill-rule:nonzero;stroke:none"
       transform="matrix(1.32308,0.16466667,0.16466667,-1.32308,397.47644,333.40391)" />
    <path
       id="path6"
       d="m 3.9574866,-6.22725 c 0,-0.1875 -0.140625,-0.3616071 -0.3816964,-0.3616071 -0.2276786,0 -0.5290179,0.234375 -0.5290179,0.5290178 0,0.2008929 0.140625,0.3616072 0.3683036,0.3616072 0.2745536,0 0.5424107,-0.2611608 0.5424107,-0.5290179 z M 1.9552545,0.49596429 C 1.761058,1.2526607 1.2856116,1.8218571 0.72980804,1.8218571 c -0.0602679,0 -0.21428572,0 -0.38839286,-0.087053 0.29464286,-0.073661 0.44866071,-0.328125 0.44866071,-0.5290179 0,-0.1607143 -0.11383928,-0.34821427 -0.38169643,-0.34821427 -0.24776785,0 -0.53571428,0.20758927 -0.53571428,0.56919647 0,0.3950892 0.39508928,0.6160714 0.87723214,0.6160714 0.69642858,0 1.62053568,-0.5290179 1.86830358,-1.51339287 L 3.5356116,-3.1201071 C 3.589183,-3.321 3.589183,-3.4549286 3.589183,-3.4884107 c 0,-0.5691964 -0.421875,-0.9174107 -0.9174107,-0.9174107 -1.0178571,0 -1.5870535,1.4464285 -1.5870535,1.5334821 0,0.1004464 0.1004464,0.1004464 0.1205357,0.1004464 0.087054,0 0.1004464,-0.0067 0.1808035,-0.1941964 0.2477679,-0.609375 0.703125,-1.21875 1.2522322,-1.21875 0.140625,0 0.3214286,0.040179 0.3214286,0.4553572 0,0.234375 -0.033482,0.3415178 -0.066964,0.5089285 z m 0,0"
       style="fill:#000000;fill-opacity:1;fill-rule:nonzero;stroke:none"
       aria-label="j"
       transform="matrix(2.3333333,0,0,2.3333333,410.62133,341.124)" />
    <path
       id="path7"
       d="M 0,0 V 197.78209"
       style="fill:none;stroke:#000000;stroke-width:0.79701;stroke-linecap:butt;stroke-linejoin:miter;stroke-miterlimit:10;stroke-dasharray:none;stroke-opacity:1"
       transform="matrix(1.3333333,0,0,-1.3333333,155.02933,303.224)" />
    <path
       id="path8"
       d="M 4.66248,0 C 3.28098,0.25902 1.0361,1.0361 -0.51805,1.94269 V -1.94269 C 1.0361,-1.0361 3.28098,-0.25902 4.66248,0"
       style="fill:#000000;fill-opacity:1;fill-rule:nonzero;stroke:none"
       transform="matrix(0,-1.3333333,-1.3333333,0,155.02933,39.514547)" />
    <path
       id="path9"
       d="m 2.8599241,-6.804 c 0,-0.013393 0,-0.1138393 -0.1272321,-0.1138393 -0.234375,0 -0.9575893,0.080357 -1.21875,0.1004464 -0.080357,0.013393 -0.1875,0.020089 -0.1875,0.2008929 0,0.1205357 0.087054,0.1205357 0.2410714,0.1205357 0.4754464,0 0.4955357,0.066964 0.4955357,0.1674107 l -0.026786,0.2008929 -1.44642858,5.73883927 c -0.0401786,0.140625 -0.0401786,0.16071429 -0.0401786,0.22098214 0,0.22767858 0.20089286,0.27455358 0.28794643,0.27455358 0.12723214,0 0.28125005,-0.08705358 0.34151785,-0.20758929 0.046875,-0.0870536 0.4955358,-1.9352679 0.5558036,-2.1830357 0.3415179,0.033482 1.1584822,0.1941964 1.1584822,0.8504464 0,0.066964 0,0.1071429 -0.033482,0.2075893 -0.020089,0.1205357 -0.040179,0.24107143 -0.040179,0.34821429 0,0.58928571 0.4017858,0.984375 0.9174108,0.984375 0.3013392,0 0.5691964,-0.15401786 0.7901785,-0.52232143 0.2477679,-0.44196429 0.3549107,-0.99107146 0.3549107,-1.01116076 0,-0.1004464 -0.087053,-0.1004464 -0.1205357,-0.1004464 -0.1004464,0 -0.1071428,0.040179 -0.140625,0.1808036 -0.1941964,0.7299107 -0.4285714,1.23883927 -0.8638393,1.23883927 -0.1875,0 -0.3214285,-0.11383928 -0.3214285,-0.46875 0,-0.17410714 0.040178,-0.40178571 0.080357,-0.56249997 0.040179,-0.1674107 0.040179,-0.2075893 0.040179,-0.3080357 0,-0.6428572 -0.6294643,-0.9375 -1.4732143,-1.0446429 0.3080357,-0.1808036 0.6294643,-0.4955357 0.8571429,-0.7366071 0.4754464,-0.5290179 0.9375,-0.9575893 1.4263392,-0.9575893 0.060268,0 0.066964,0 0.087054,0.013393 0.1205357,0.020089 0.1272322,0.020089 0.2075893,0.073661 0.020089,0.013393 0.020089,0.020089 0.040179,0.040179 -0.4754465,0.033482 -0.5625,0.421875 -0.5625,0.5424107 0,0.1607143 0.1071428,0.3482143 0.375,0.3482143 0.2611607,0 0.5491071,-0.2209821 0.5491071,-0.609375 0,-0.3013393 -0.2276786,-0.6294643 -0.6763393,-0.6294643 -0.28125,0 -0.7366071,0.080357 -1.4598214,0.8772322 -0.334822,0.3816955 -0.7232149,0.7767848 -1.1049113,0.9308026 z m 0,0"
       style="fill:#000000;fill-opacity:1;fill-rule:nonzero;stroke:none"
       aria-label="k"
       transform="matrix(2.3333333,0,0,2.3333333,148.612,27.876)" />
    <path
       id="path10"
       d="M -48.47667,-45.55272 58.07301,-58.81602"
       style="fill:none;stroke:#000000;stroke-width:0.3985;stroke-linecap:butt;stroke-linejoin:miter;stroke-miterlimit:10;stroke-dasharray:2.98883, 2.98883;stroke-dashoffset:0;stroke-opacity:1"
       transform="matrix(1.3333333,0,0,-1.3333333,155.02933,303.224)" />
    <g
       id="g10"
       aria-label="x&#10;0"
       transform="matrix(2.3333333,0,0,2.3333333,58.466667,367.22133)">
      <path
         id="path11"
         d="m 3.3273438,-3.0061295 c 0.060268,-0.2611607 0.2879464,-1.1785714 0.984375,-1.1785714 0.053571,0 0.2879464,0 0.5022321,0.1272322 -0.28125,0.053571 -0.4821429,0.3013392 -0.4821429,0.5424107 0,0.1607143 0.1138393,0.3482143 0.3816965,0.3482143 0.2209821,0 0.5357143,-0.1808036 0.5357143,-0.5758929 0,-0.5223214 -0.5892858,-0.6629464 -0.9241072,-0.6629464 -0.5825893,0 -0.9308036,0.5290178 -1.0446428,0.7566964 -0.2544643,-0.65625 -0.7901786,-0.7566964 -1.078125,-0.7566964 -1.0379465,0 -1.60714291,1.2857143 -1.60714291,1.5334821 0,0.1004464 0.10044643,0.1004464 0.12053572,0.1004464 0.0803571,0 0.11383928,-0.020089 0.12723214,-0.1071428 0.34151785,-1.0580357 0.99776785,-1.3058036 1.33928575,-1.3058036 0.1875,0 0.5357143,0.087054 0.5357143,0.6696429 0,0.3080357 -0.1674108,0.9776785 -0.5357143,2.3705357 -0.1607143,0.61607141 -0.5089286,1.03794641 -0.9441965,1.03794641 -0.060268,0 -0.29464282,0 -0.50223211,-0.13392857 0.24776786,-0.046875 0.46875001,-0.25446429 0.46875001,-0.53571429 0,-0.26785715 -0.22098215,-0.34821425 -0.36830358,-0.34821425 -0.30133928,0 -0.54910714,0.26116068 -0.54910714,0.57589282 0,0.46205357 0.50223214,0.65625 0.93750002,0.65625 0.65625,0 1.0178571,-0.69642857 1.0446428,-0.75669643 0.1205358,0.36830357 0.4821429,0.75669643 1.078125,0.75669643 1.0245536,0 1.59375,-1.28571432 1.59375,-1.53348212 0,-0.1004464 -0.087053,-0.1004464 -0.1205357,-0.1004464 -0.087053,0 -0.1071428,0.040179 -0.1272321,0.1138392 -0.328125,1.06473218 -1.0044643,1.30580361 -1.3258929,1.30580361 -0.3883928,0 -0.5491071,-0.32142857 -0.5491071,-0.66294643 0,-0.21428572 0.060268,-0.43526788 0.1674107,-0.87723218 z m 0,0"
         style="fill:#000000;fill-opacity:1;fill-rule:nonzero;stroke:none" />
      <path
         id="path12"
         d="m 9.2905134,-0.72934375 c 0,-0.77008925 -0.087054,-1.31919645 -0.4084821,-1.80803575 -0.2209822,-0.3214285 -0.6495536,-0.5959821 -1.2053572,-0.5959821 -1.6205357,0 -1.6205357,1.9017857 -1.6205357,2.40401785 0,0.50223214 0,2.36383925 1.6205357,2.36383925 1.6138393,0 1.6138393,-1.86160711 1.6138393,-2.36383925 z M 7.6766741,1.4402991 c -0.3214286,0 -0.75,-0.1875 -0.890625,-0.76339285 -0.09375,-0.40848214 -0.09375,-0.984375 -0.09375,-1.5 0,-0.50892855 0,-1.03794645 0.1004464,-1.41964285 0.1473215,-0.5491071 0.5959822,-0.6964286 0.8839286,-0.6964286 0.375,0 0.7366072,0.2276786 0.8638393,0.6361607 0.1071429,0.375 0.1138393,0.8772322 0.1138393,1.47991075 0,0.515625 0,1.03125 -0.087054,1.47321429 C 8.4266741,1.2862813 7.9512277,1.4402991 7.6766741,1.4402991 Z m 0,0"
         style="fill:#000000;fill-opacity:1;fill-rule:nonzero;stroke:none" />
    </g>
    <path
       id="path13"
       d="M 106.54968,-13.26329 58.07301,-58.81602"
       style="fill:none;stroke:#000000;stroke-width:0.3985;stroke-linecap:butt;stroke-linejoin:miter;stroke-miterlimit:10;stroke-dasharray:2.98883, 2.98883;stroke-dashoffset:0;stroke-opacity:1"
       transform="matrix(1.3333333,0,0,-1.3333333,155.02933,303.224)" />
    <g
       id="g13"
       aria-label="y&#10;0"
       transform="matrix(2.3333333,0,0,2.3333333,286.18,308.176)">
      <path
         id="path14"
         d="m 4.8413839,-3.7969687 c 0.040179,-0.140625 0.040179,-0.1607143 0.040179,-0.2276786 0,-0.1808036 -0.140625,-0.2678572 -0.2879464,-0.2678572 -0.1004465,0 -0.2611607,0.060268 -0.3482143,0.2075893 -0.020089,0.046875 -0.1004464,0.3549107 -0.140625,0.5357143 -0.066964,0.2611607 -0.140625,0.5290179 -0.2008929,0.796875 l -0.4486607,1.79464286 c -0.040179,0.14732143 -0.46875,0.85044643 -1.125,0.85044643 -0.5089286,0 -0.6160714,-0.44196428 -0.6160714,-0.81026785 0,-0.45535714 0.1674107,-1.07812504 0.5089286,-1.95535714 0.1607142,-0.4084821 0.2008928,-0.515625 0.2008928,-0.7165179 0,-0.4486607 -0.3214286,-0.8169642 -0.8169643,-0.8169642 -0.95089283,0 -1.3191964,1.4464285 -1.3191964,1.5334821 0,0.1004464 0.10044643,0.1004464 0.12053571,0.1004464 0.10044643,0 0.10714286,-0.020089 0.16071429,-0.1741071 0.26785714,-0.9375 0.6696429,-1.2388393 1.0044643,-1.2388393 0.080357,0 0.2477678,0 0.2477678,0.3214286 0,0.2477678 -0.1004464,0.5089285 -0.1674107,0.6964285 -0.4017857,1.0580358 -0.5758928,1.6205358 -0.5758928,2.0892858 0,0.89062495 0.6227678,1.18526781 1.2120535,1.18526781 0.3883929,0 0.7299108,-0.16741072 1.0111608,-0.44866072 C 3.1672768,0.18070982 3.0467411,0.66954911 2.6516518,1.198567 2.3904911,1.5333884 2.0154911,1.8213348 1.5534375,1.8213348 c -0.140625,0 -0.58928571,-0.026786 -0.75669643,-0.4151785 0.16071429,0 0.28794643,0 0.42857143,-0.1205358 0.1004464,-0.087054 0.2008929,-0.2209821 0.2008929,-0.40848211 0,-0.30803571 -0.2678572,-0.34821428 -0.3683036,-0.34821428 -0.22767859,0 -0.56250001,0.16071428 -0.56250001,0.64955359 0,0.4955357 0.44196428,0.8638393 1.05803571,0.8638393 1.0245536,0 2.0558036,-0.9040179 2.3303571,-2.03571432 z m 0,0"
         style="fill:#000000;fill-opacity:1;fill-rule:nonzero;stroke:none" />
      <path
         id="path15"
         d="m 8.4808929,-0.73000446 c 0,-0.77008924 -0.087054,-1.31919644 -0.4084822,-1.80803574 -0.2209821,-0.3214285 -0.6495536,-0.5959821 -1.2053571,-0.5959821 -1.6205357,0 -1.6205357,1.9017857 -1.6205357,2.40401784 0,0.50223214 0,2.36383926 1.6205357,2.36383926 1.6138393,0 1.6138393,-1.86160712 1.6138393,-2.36383926 z M 6.8670536,1.4396384 c -0.3214286,0 -0.75,-0.1875 -0.890625,-0.76339286 -0.09375,-0.40848215 -0.09375,-0.984375 -0.09375,-1.5 0,-0.50892854 0,-1.03794644 0.1004464,-1.41964284 0.1473214,-0.5491072 0.5959821,-0.6964286 0.8839286,-0.6964286 0.375,0 0.7366071,0.2276786 0.8638393,0.6361607 0.1071428,0.375 0.1138392,0.8772322 0.1138392,1.47991074 0,0.515625 0,1.03125 -0.087053,1.47321428 C 7.6170536,1.2856205 7.1416071,1.4396384 6.8670536,1.4396384 Z m 0,0"
         style="fill:#000000;fill-opacity:1;fill-rule:nonzero;stroke:none" />
    </g>
    <path
       id="path16"
       d="M 0,154.4967 58.07301,95.68068"
       style="fill:none;stroke:#000000;stroke-width:0.3985;stroke-linecap:butt;stroke-linejoin:miter;stroke-miterlimit:10;stroke-dasharray:2.98883, 2.98883;stroke-dashoffset:0;stroke-opacity:1"
       transform="matrix(1.3333333,0,0,-1.3333333,155.02933,303.224)" />
    <g
       id="g16"
       aria-label="z&#10;0"
       transform="matrix(2.3333333,0,0,2.3333333,125.57733,100.492)">
      <path
         id="path17"
         d="M 1.3262321,-0.83027679 C 1.8619464,-1.4061696 2.1498929,-1.6539375 2.5115,-1.9619732 c 0,-0.013393 0.6160714,-0.5357143 0.9776786,-0.8973214 0.9441964,-0.9241072 1.1651785,-1.40625 1.1651785,-1.4464286 0,-0.1004464 -0.087054,-0.1004464 -0.1071428,-0.1004464 -0.073661,0 -0.1004464,0.020089 -0.1540179,0.1138392 -0.2946428,0.4754465 -0.5089285,0.6361608 -0.7433035,0.6361608 -0.2410715,0 -0.3616072,-0.1473215 -0.5089286,-0.3214286 -0.1941964,-0.2276786 -0.3616072,-0.4285714 -0.6897322,-0.4285714 -0.75,0 -1.2053571,0.9308035 -1.2053571,1.1383928 0,0.046875 0.026786,0.1071429 0.1205357,0.1071429 0.087054,0 0.1071429,-0.046875 0.1272322,-0.1071429 0.1875,-0.4620536 0.7700892,-0.46875 0.8504464,-0.46875 0.2075893,0 0.3950893,0.066964 0.6227678,0.1473214 0.4017858,0.1540179 0.5089286,0.1540179 0.7700893,0.1540179 -0.3616071,0.4285714 -1.1986607,1.1450893 -1.3861607,1.3058036 l -0.8973214,0.8370535 c -0.6763393,0.66294647 -1.02455359,1.2321429 -1.02455359,1.29910719 0,0.10044642 0.10044643,0.10044642 0.12053572,0.10044642 0.0803571,0 0.10044643,-0.02008928 0.16071428,-0.12723214 0.22767858,-0.34821428 0.52901789,-0.61607143 0.84374999,-0.61607143 0.2276786,0 0.328125,0.0870536 0.5758929,0.375 0.1741071,0.21428572 0.3549107,0.36830357 0.6428571,0.36830357 0.984375,0 1.5602679,-1.26562501 1.5602679,-1.53348211 0,-0.046875 -0.040179,-0.1004465 -0.1205357,-0.1004465 -0.087054,0 -0.1071429,0.060268 -0.1339286,0.1339286 -0.234375,0.64285716 -0.8705357,0.83705359 -1.1986607,0.83705359 -0.2008929,0 -0.3816965,-0.0602679 -0.5892857,-0.13392858 C 1.9556964,-0.81688393 1.8016786,-0.8570625 1.5940893,-0.8570625 c -0.020089,0 -0.1808036,0 -0.2678572,0.0267857 z m 0,0"
         style="fill:#000000;fill-opacity:1;fill-rule:nonzero;stroke:none" />
      <path
         id="path18"
         d="m 8.2285759,-0.72815625 c 0,-0.77008925 -0.087054,-1.31919645 -0.4084821,-1.80803575 -0.2209822,-0.3214285 -0.6495536,-0.5959821 -1.2053572,-0.5959821 -1.6205357,0 -1.6205357,1.9017857 -1.6205357,2.40401785 0,0.50223214 0,2.36383925 1.6205357,2.36383925 1.6138393,0 1.6138393,-1.86160711 1.6138393,-2.36383925 z M 6.6147366,1.4414866 c -0.3214286,0 -0.75,-0.1875 -0.890625,-0.76339285 -0.09375,-0.40848214 -0.09375,-0.984375 -0.09375,-1.5 0,-0.50892855 0,-1.03794645 0.1004464,-1.41964285 0.1473215,-0.5491071 0.5959822,-0.6964286 0.8839286,-0.6964286 0.375,0 0.7366072,0.2276786 0.8638393,0.6361607 0.1071429,0.375 0.1138393,0.8772322 0.1138393,1.47991075 0,0.515625 0,1.03125 -0.087054,1.47321429 C 7.3647366,1.2874688 6.8892902,1.4414866 6.6147366,1.4414866 Z m 0,0"
         style="fill:#000000;fill-opacity:1;fill-rule:nonzero;stroke:none" />
    </g>
    <path
       id="path19"
       d="M 0,0 53.98543,90.25832"
       style="fill:none;stroke:#0000ff;stroke-width:0.79701;stroke-linecap:butt;stroke-linejoin:miter;stroke-miterlimit:10;stroke-dasharray:none;stroke-opacity:1"
       transform="matrix(1.3333333,0,0,-1.3333333,155.02933,303.224)" />
    <path
       id="path20"
       d="M 4.66248,0 C 3.28098,0.25902 1.0361,1.0361 -0.51805,1.94269 V -1.94269 C 1.0361,-1.0361 3.28098,-0.25902 4.66248,0"
       style="fill:#0000ff;fill-opacity:1;fill-rule:nonzero;stroke:none"
       transform="matrix(0.6844,-1.1442267,-1.1442267,-0.6844,227.00988,182.8796)" />
    <g
       id="g20"
       aria-label="⃗x&#10;0"
       transform="matrix(2.3333333,0,0,2.3333333,178.56667,215.52667)">
      <path
         id="path21"
         d="m 5.3503348,-5.9260491 c -0.140625,0.1272321 -0.46875,0.4084821 -0.46875,0.5825893 0,0.1004464 0.1004465,0.2008928 0.2008929,0.2008928 0.087054,0 0.140625,-0.066964 0.1875,-0.1272321 0.1205357,-0.1473214 0.3482143,-0.4285714 0.7901786,-0.6495536 0.066964,-0.040178 0.1674107,-0.087053 0.1674107,-0.2075893 0,-0.1004464 -0.066964,-0.1473214 -0.140625,-0.2008928 C 5.8659598,-6.4751562 5.758817,-6.6559598 5.6784598,-6.8970312 5.6583705,-6.9840848 5.618192,-7.111317 5.477567,-7.111317 c -0.1339286,0 -0.1941965,0.1272322 -0.1941965,0.2075893 0,0.046875 0.080357,0.3683036 0.234375,0.5758929 H 2.1628348 c -0.1674107,0 -0.3482143,0 -0.3482143,0.2008928 0,0.2008929 0.1808036,0.2008929 0.3482143,0.2008929 z m 0,0"
         style="fill:#0000ff;fill-opacity:1;fill-rule:nonzero;stroke:none" />
      <path
         id="path22"
         d="m 3.4870536,-2.3434598 c 0.3013393,-0.375 0.6763393,-0.8638393 0.9174107,-1.125 0.3080357,-0.3549107 0.7165178,-0.5089286 1.1852678,-0.515625 v -0.3080357 c -0.2611607,0.020089 -0.5558035,0.026786 -0.8169642,0.026786 -0.3013393,0 -0.8236608,-0.020089 -0.9575893,-0.026786 v 0.3080357 c 0.2075893,0.020089 0.2879464,0.1473214 0.2879464,0.3080357 0,0.1607143 -0.1004464,0.2879464 -0.1473214,0.3482143 L 3.3397321,-2.5510491 2.5629464,-3.5555134 c -0.09375,-0.1004464 -0.09375,-0.1205357 -0.09375,-0.1808036 0,-0.1473214 0.1540179,-0.2410714 0.3482143,-0.2477678 v -0.3080357 c -0.2544643,0.0067 -0.9174107,0.026786 -1.0714286,0.026786 -0.2142857,0 -0.6830357,-0.0067 -0.95089281,-0.026786 v 0.3080357 c 0.69642861,0 0.70982141,0.0067 1.17857141,0.609375 l 0.984375,1.2857143 -0.9375,1.18526782 C 1.5450893,-0.32783482 0.95580357,-0.30774554 0.74821429,-0.30774554 V 2.9017857e-4 C 1.009375,-0.01979911 1.3174107,-0.02649554 1.571875,-0.02649554 c 0.2946429,0 0.7098214,0.02008929 0.9508929,0.0267857186 V -0.30774554 c -0.2209822,-0.0334821 -0.2879465,-0.16071428 -0.2879465,-0.30803571 0,-0.22098214 0.2879465,-0.54910715 0.890625,-1.26562495 l 0.7633929,0.99776781 c 0.073661,0.10714285 0.2075893,0.26785714 0.2075893,0.328125 0,0.0870536 -0.09375,0.234375 -0.3616072,0.24776785 V 2.9017857e-4 C 4.0361607,-0.00640625 4.5919643,-0.02649554 4.8129464,-0.02649554 c 0.2678572,0 0.65625,0.0066964 0.9575893,0.0267857186 V -0.30774554 c -0.5424107,0 -0.7165178,-0.0200893 -0.9508928,-0.30803571 z m 0,0"
         style="fill:#0000ff;fill-opacity:1;fill-rule:nonzero;stroke:none" />
      <path
         id="path23"
         d="m 9.4820313,-0.72962054 c 0,-0.77008926 -0.087054,-1.31919646 -0.4084822,-1.80803566 C 8.852567,-2.8590848 8.4239955,-3.1336384 7.868192,-3.1336384 c -1.6205357,0 -1.6205357,1.9017857 -1.6205357,2.40401786 0,0.50223215 0,2.36383934 1.6205357,2.36383934 1.6138393,0 1.6138393,-1.86160719 1.6138393,-2.36383934 z M 7.868192,1.4400223 c -0.3214286,0 -0.75,-0.1875 -0.890625,-0.76339284 -0.09375,-0.40848214 -0.09375,-0.984375 -0.09375,-1.5 0,-0.50892856 0,-1.03794646 0.1004464,-1.41964286 0.1473214,-0.5491071 0.5959821,-0.6964286 0.8839286,-0.6964286 0.375,0 0.7366071,0.2276786 0.8638393,0.6361608 0.1071428,0.375 0.1138392,0.8772321 0.1138392,1.47991066 0,0.515625 0,1.03125 -0.087053,1.47321429 C 8.618192,1.2860045 8.1427455,1.4400223 7.868192,1.4400223 Z m 0,0"
         style="fill:#0000ff;fill-opacity:1;fill-rule:nonzero;stroke:none" />
    </g>
    <path
       id="path24"
       d="M -19.39066,-18.22108 140.43387,-38.11603"
       style="fill:none;stroke:#000000;stroke-width:0.3985;stroke-linecap:butt;stroke-linejoin:miter;stroke-miterlimit:10;stroke-dasharray:2.98883, 2.98883;stroke-dashoffset:0;stroke-opacity:1"
       transform="matrix(1.3333333,0,0,-1.3333333,155.02933,303.224)" />
    <path
       id="path25"
       d="m 3.3280313,-3.0063661 c 0.060268,-0.2611607 0.2879464,-1.1785714 0.984375,-1.1785714 0.053571,0 0.2879464,0 0.5022321,0.1272321 -0.28125,0.053571 -0.4821429,0.3013393 -0.4821429,0.5424108 0,0.1607142 0.1138393,0.3482142 0.3816965,0.3482142 0.2209821,0 0.5357143,-0.1808035 0.5357143,-0.5758928 0,-0.5223214 -0.5892858,-0.6629464 -0.9241072,-0.6629464 -0.5825893,0 -0.9308036,0.5290178 -1.0446428,0.7566964 -0.2544643,-0.65625 -0.7901786,-0.7566964 -1.078125,-0.7566964 -1.0379465,0 -1.60714291,1.2857142 -1.60714291,1.5334821 0,0.1004464 0.10044643,0.1004464 0.12053572,0.1004464 0.0803571,0 0.11383928,-0.020089 0.12723214,-0.1071428 0.34151785,-1.0580357 0.99776785,-1.3058036 1.33928575,-1.3058036 0.1875,0 0.5357143,0.087054 0.5357143,0.6696429 0,0.3080357 -0.1674108,0.9776785 -0.5357143,2.3705357 -0.1607143,0.6160714 -0.5089286,1.0379464 -0.9441965,1.0379464 -0.060268,0 -0.29464282,0 -0.50223211,-0.13392857 0.24776786,-0.046875 0.46875001,-0.25446429 0.46875001,-0.53571429 0,-0.26785714 -0.22098215,-0.34821424 -0.36830358,-0.34821424 -0.30133928,0 -0.54910714,0.26116067 -0.54910714,0.57589281 0,0.46205358 0.50223214,0.65625 0.93750002,0.65625 0.65625,0 1.0178571,-0.69642857 1.0446428,-0.75669642 0.1205358,0.36830357 0.4821429,0.75669642 1.078125,0.75669642 1.0245536,0 1.59375,-1.28571431 1.59375,-1.53348211 0,-0.1004465 -0.087054,-0.1004465 -0.1205357,-0.1004465 -0.087053,0 -0.1071428,0.040179 -0.1272321,0.1138393 -0.328125,1.06473217 -1.0044643,1.3058036 -1.3258929,1.3058036 -0.3883928,0 -0.5491071,-0.32142857 -0.5491071,-0.66294643 0,-0.21428571 0.060268,-0.43526787 0.1674107,-0.87723217 z m 0,0"
       style="fill:#000000;fill-opacity:1;fill-rule:nonzero;stroke:none"
       aria-label="x"
       transform="matrix(2.3333333,0,0,2.3333333,107.676,332.52267)" />
    <path
       id="path26"
       d="M 159.82454,-19.89494 140.43387,-38.11603"
       style="fill:none;stroke:#000000;stroke-width:0.3985;stroke-linecap:butt;stroke-linejoin:miter;stroke-miterlimit:10;stroke-dasharray:2.98883, 2.98883;stroke-dashoffset:0;stroke-opacity:1"
       transform="matrix(1.3333333,0,0,-1.3333333,155.02933,303.224)" />
    <path
       id="path27"
       d="m 4.8408661,-3.7976071 c 0.040178,-0.140625 0.040178,-0.1607143 0.040178,-0.2276786 0,-0.1808036 -0.140625,-0.2678572 -0.2879464,-0.2678572 -0.1004464,0 -0.2611607,0.060268 -0.3482143,0.2075893 -0.020089,0.046875 -0.1004464,0.3549107 -0.140625,0.5357143 -0.066964,0.2611607 -0.140625,0.5290179 -0.2008928,0.796875 l -0.4486607,1.79464287 c -0.040179,0.14732143 -0.46875,0.85044643 -1.125,0.85044643 -0.5089286,0 -0.6160715,-0.44196429 -0.6160715,-0.81026786 0,-0.45535714 0.1674107,-1.07812504 0.5089286,-1.95535714 0.1607143,-0.4084821 0.2008929,-0.515625 0.2008929,-0.7165179 0,-0.4486607 -0.3214286,-0.8169642 -0.8169643,-0.8169642 -0.95089289,0 -1.31919646,1.4464285 -1.31919646,1.5334821 0,0.1004464 0.10044643,0.1004464 0.12053572,0.1004464 0.10044643,0 0.10714285,-0.020089 0.16071428,-0.1741071 C 0.83640179,-3.8846607 1.2381875,-4.186 1.5730089,-4.186 c 0.080357,0 0.2477679,0 0.2477679,0.3214286 0,0.2477678 -0.1004464,0.5089285 -0.1674107,0.6964285 -0.4017857,1.0580358 -0.5758929,1.6205358 -0.5758929,2.0892858 0,0.89062496 0.6227679,1.18526781 1.2120536,1.18526781 0.3883928,0 0.7299107,-0.16741071 1.0111607,-0.44866071 C 3.1667589,0.18007143 3.0462232,0.66891071 2.6511339,1.1979286 2.3899732,1.53275 2.0149732,1.8206964 1.5529196,1.8206964 c -0.140625,0 -0.58928567,-0.026786 -0.75669639,-0.4151785 0.16071429,0 0.28794639,0 0.42857139,-0.1205358 C 1.3252411,1.1979286 1.4256875,1.064 1.4256875,0.8765 c 0,-0.30803571 -0.2678571,-0.34821429 -0.3683036,-0.34821429 -0.22767854,0 -0.56249997,0.16071429 -0.56249997,0.64955359 0,0.4955357 0.44196428,0.8638393 1.05803567,0.8638393 1.0245536,0 2.0558036,-0.9040179 2.3303572,-2.03571431 z m 0,0"
       style="fill:#000000;fill-opacity:1;fill-rule:nonzero;stroke:none"
       aria-label="y"
       transform="matrix(2.3333333,0,0,2.3333333,362.00933,317.01733)" />
    <path
       id="path28"
       d="m 143.4227,-16.80603 c 0,1.65071 -1.33814,2.98883 -2.98883,2.98883 -1.65071,0 -2.98883,-1.33812 -2.98883,-2.98883 0,-1.6507 1.33812,-2.98883 2.98883,-2.98883 1.65069,0 2.98883,1.33813 2.98883,2.98883 z"
       style="fill:#ffffff;fill-opacity:1;fill-rule:nonzero;stroke:none"
       transform="matrix(1.3333333,0,0,-1.3333333,155.02933,303.224)" />
    <path
       id="path29"
       d="M 140.43387,135.0272 V -38.11603"
       style="fill:none;stroke:#000000;stroke-width:0.3985;stroke-linecap:butt;stroke-linejoin:miter;stroke-miterlimit:10;stroke-dasharray:2.98883, 2.98883;stroke-dashoffset:0;stroke-opacity:1"
       transform="matrix(1.3333333,0,0,-1.3333333,155.02933,303.224)" />
    <path
       id="path30"
       d="M 0,173.14325 140.43387,135.0272"
       style="fill:none;stroke:#000000;stroke-width:0.3985;stroke-linecap:butt;stroke-linejoin:miter;stroke-miterlimit:10;stroke-dasharray:2.98883, 2.98883;stroke-dashoffset:0;stroke-opacity:1"
       transform="matrix(1.3333333,0,0,-1.3333333,155.02933,303.224)" />
    <path
       id="path31"
       d="M 1.326625,-0.82964286 C 1.8623393,-1.4055357 2.1502857,-1.6533036 2.5118929,-1.9613393 c 0,-0.013393 0.6160714,-0.5357143 0.9776785,-0.8973214 0.9441965,-0.9241072 1.1651786,-1.40625 1.1651786,-1.4464286 0,-0.1004464 -0.087054,-0.1004464 -0.1071429,-0.1004464 -0.073661,0 -0.1004464,0.020089 -0.1540178,0.1138393 -0.2946429,0.4754464 -0.5089286,0.6361607 -0.7433036,0.6361607 -0.2410714,0 -0.3616071,-0.1473214 -0.5089286,-0.3214286 C 2.9471607,-4.2046429 2.77975,-4.4055357 2.451625,-4.4055357 c -0.75,0 -1.2053571,0.9308036 -1.2053571,1.1383928 0,0.046875 0.026786,0.1071429 0.1205357,0.1071429 0.087054,0 0.1071428,-0.046875 0.1272321,-0.1071429 0.1875,-0.4620535 0.7700893,-0.46875 0.8504464,-0.46875 0.2075893,0 0.3950893,0.066964 0.6227679,0.1473215 0.4017857,0.1540178 0.5089286,0.1540178 0.7700893,0.1540178 C 3.3757321,-3.0059821 2.5386786,-2.2894643 2.3511786,-2.12875 L 1.4538571,-1.2916964 C 0.77751786,-0.62875 0.42930357,-0.05955357 0.42930357,0.00741071 c 0,0.10044643 0.10044643,0.10044643 0.12053572,0.10044643 0.0803571,0 0.10044642,-0.02008928 0.16071428,-0.12723214 0.22767857,-0.34821429 0.52901783,-0.61607143 0.84375003,-0.61607143 0.2276785,0 0.328125,0.0870536 0.5758928,0.375 0.1741072,0.21428572 0.3549107,0.36830357 0.6428572,0.36830357 0.984375,0 1.5602678,-1.26562504 1.5602678,-1.53348214 0,-0.046875 -0.040178,-0.1004464 -0.1205357,-0.1004464 -0.087054,0 -0.1071428,0.060268 -0.1339286,0.1339285 -0.234375,0.64285719 -0.8705357,0.83705361 -1.1986607,0.83705361 -0.2008928,0 -0.3816964,-0.0602679 -0.5892857,-0.13392857 C 1.9560893,-0.81625 1.8020714,-0.85642857 1.5944821,-0.85642857 c -0.020089,0 -0.1808035,0 -0.2678571,0.0267857 z m 0,0"
       style="fill:#000000;fill-opacity:1;fill-rule:nonzero;stroke:none"
       aria-label="z"
       transform="matrix(2.3333333,0,0,2.3333333,134.98267,77.373333)" />
    <path
       id="path32"
       d="M 0,0 135.38121,130.37198"
       style="fill:none;stroke:#0000ff;stroke-width:0.79701;stroke-linecap:butt;stroke-linejoin:miter;stroke-miterlimit:10;stroke-dasharray:none;stroke-opacity:1"
       transform="matrix(1.3333333,0,0,-1.3333333,155.02933,303.224)" />
    <path
       id="path33"
       d="M 4.66248,0 C 3.28098,0.25902 1.0361,1.0361 -0.51805,1.94269 V -1.94269 C 1.0361,-1.0361 3.28098,-0.25902 4.66248,0"
       style="fill:#0000ff;fill-opacity:1;fill-rule:nonzero;stroke:none"
       transform="matrix(0.96038667,-0.92484,-0.92484,-0.96038667,335.53761,129.39472)" />
    <g
       id="g33"
       aria-label="⃗x"
       transform="matrix(2.3333333,0,0,2.3333333,286.16667,194.90533)">
      <path
         id="path34"
         d="m 5.3510045,-5.9259464 c -0.140625,0.1272321 -0.46875,0.4084821 -0.46875,0.5825893 0,0.1004464 0.1004464,0.2008928 0.2008928,0.2008928 0.087054,0 0.140625,-0.066964 0.1875,-0.1272321 0.1205357,-0.1473215 0.3482143,-0.4285715 0.7901786,-0.6495536 0.066964,-0.040179 0.1674107,-0.087054 0.1674107,-0.2075893 0,-0.1004464 -0.066964,-0.1473214 -0.140625,-0.2008928 -0.2209821,-0.1473215 -0.328125,-0.328125 -0.4084821,-0.5691965 -0.020089,-0.087054 -0.060268,-0.2142857 -0.2008929,-0.2142857 -0.1339286,0 -0.1941964,0.1272322 -0.1941964,0.2075893 0,0.046875 0.080357,0.3683036 0.234375,0.5758929 H 2.1635045 c -0.1674108,0 -0.3482143,0 -0.3482143,0.2008928 0,0.2008929 0.1808035,0.2008929 0.3482143,0.2008929 z m 0,0"
         style="fill:#0000ff;fill-opacity:1;fill-rule:nonzero;stroke:none" />
      <path
         id="path35"
         d="m 3.4877232,-2.3433571 c 0.3013393,-0.375 0.6763393,-0.8638393 0.9174107,-1.125 0.3080357,-0.3549108 0.7165179,-0.5089286 1.1852679,-0.515625 v -0.3080358 c -0.2611607,0.020089 -0.5558036,0.026786 -0.8169643,0.026786 -0.3013393,0 -0.8236607,-0.020089 -0.9575893,-0.026786 v 0.3080358 c 0.2075893,0.020089 0.2879464,0.1473214 0.2879464,0.3080357 0,0.1607143 -0.1004464,0.2879464 -0.1473214,0.3482143 L 3.3404018,-2.5509464 2.5636161,-3.5554107 c -0.09375,-0.1004464 -0.09375,-0.1205357 -0.09375,-0.1808036 0,-0.1473214 0.1540178,-0.2410714 0.3482143,-0.2477678 v -0.3080358 c -0.2544643,0.0067 -0.9174108,0.026786 -1.0714286,0.026786 -0.2142857,0 -0.6830357,-0.0067 -0.95089287,-0.026786 v 0.3080358 c 0.69642857,0 0.70982147,0.0067 1.17857147,0.609375 l 0.984375,1.2857142 -0.9375,1.1852679 C 1.5457589,-0.32773214 0.95647321,-0.30764286 0.74888393,-0.30764286 V 3.9285714e-4 C 1.0100446,-0.01969643 1.3180804,-0.02639286 1.5725446,-0.02639286 c 0.2946429,0 0.7098215,0.02008929 0.9508929,0.0267857171 V -0.30764286 C 2.3024554,-0.341125 2.2354911,-0.46835714 2.2354911,-0.61567857 c 0,-0.22098214 0.2879464,-0.54910713 0.890625,-1.26562503 l 0.7633928,0.99776789 c 0.073661,0.10714285 0.2075893,0.26785714 0.2075893,0.328125 0,0.0870536 -0.09375,0.234375 -0.3616071,0.24776785 V 3.9285714e-4 C 4.0368304,-0.00630357 4.5926339,-0.02639286 4.8136161,-0.02639286 c 0.2678571,0 0.65625,0.0066964 0.9575893,0.0267857171 V -0.30764286 c -0.5424108,0 -0.7165179,-0.0200893 -0.9508929,-0.30803571 z m 0,0"
         style="fill:#0000ff;fill-opacity:1;fill-rule:nonzero;stroke:none" />
    </g>
    <path
       id="path36"
       d="m 62.05812,55.72496 c 0,2.20094 -1.78416,3.98511 -3.98511,3.98511 -2.20094,0 -3.98511,-1.78417 -3.98511,-3.98511 0,-2.20094 1.78417,-3.98511 3.98511,-3.98511 2.20095,0 3.98511,1.78417 3.98511,3.98511 z"
       style="fill:#ffffff;fill-opacity:1;fill-rule:nonzero;stroke:none"
       transform="matrix(1.3333333,0,0,-1.3333333,155.02933,303.224)" />
    <path
       id="path37"
       d="m 62.05812,-28.18315 c 0,2.20094 -1.78416,3.98511 -3.98511,3.98511 -2.20094,0 -3.98511,-1.78417 -3.98511,-3.98511 0,-2.20095 1.78417,-3.98511 3.98511,-3.98511 2.20095,0 3.98511,1.78416 3.98511,3.98511 z"
       style="fill:#ffffff;fill-opacity:1;fill-rule:nonzero;stroke:none"
       transform="matrix(1.3333333,0,0,-1.3333333,155.02933,303.224)" />
    <path
       id="path38"
       d="m 61.06184,-6.87314 c 0,1.65071 -1.33813,2.98883 -2.98883,2.98883 -1.65071,0 -2.98883,-1.33812 -2.98883,-2.98883 0,-1.65071 1.33812,-2.98883 2.98883,-2.98883 1.6507,0 2.98883,1.33812 2.98883,2.98883 z"
       style="fill:#ffffff;fill-opacity:1;fill-rule:nonzero;stroke:none"
       transform="matrix(1.3333333,0,0,-1.3333333,155.02933,303.224)" />
    <path
       id="path39"
       d="M 58.07301,95.68068 V -58.81602"
       style="fill:none;stroke:#000000;stroke-width:0.3985;stroke-linecap:butt;stroke-linejoin:miter;stroke-miterlimit:10;stroke-dasharray:2.98883, 2.98883;stroke-dashoffset:0;stroke-opacity:1"
       transform="matrix(1.3333333,0,0,-1.3333333,155.02933,303.224)" />
    <path
       id="path40"
       d="m 58.07301,95.68068 78.15413,37.33687"
       style="fill:none;stroke:#ff0000;stroke-width:0.79701;stroke-linecap:butt;stroke-linejoin:miter;stroke-miterlimit:10;stroke-dasharray:none;stroke-opacity:1"
       transform="matrix(1.3333333,0,0,-1.3333333,155.02933,303.224)" />
    <path
       id="path41"
       d="M 4.66248,0 C 3.28098,0.25902 1.0361,1.0361 -0.51805,1.94269 V -1.94269 C 1.0361,-1.0361 3.28098,-0.25902 4.66248,0"
       style="fill:#ff0000;fill-opacity:1;fill-rule:nonzero;stroke:none"
       transform="matrix(1.203,-0.57470667,-0.57470667,-1.203,336.66551,125.86729)" />
    <g
       id="g41"
       aria-label="⃗r"
       transform="matrix(2.3333333,0,0,2.3333333,268.78333,145.98933)">
      <path
         id="path42"
         d="m 5.3512277,-5.9267902 c -0.140625,0.1272322 -0.46875,0.4084822 -0.46875,0.5825893 0,0.1004464 0.1004464,0.2008929 0.2008928,0.2008929 0.087054,0 0.140625,-0.066964 0.1875,-0.1272322 0.1205357,-0.1473214 0.3482143,-0.4285714 0.7901786,-0.6495535 0.066964,-0.040179 0.1674107,-0.087054 0.1674107,-0.2075893 0,-0.1004465 -0.066964,-0.1473215 -0.140625,-0.2008929 -0.2209821,-0.1473214 -0.328125,-0.328125 -0.4084821,-0.5691964 -0.020089,-0.087054 -0.060268,-0.2142857 -0.2008929,-0.2142857 -0.1339286,0 -0.1941964,0.1272321 -0.1941964,0.2075893 0,0.046875 0.080357,0.3683035 0.234375,0.5758928 H 2.1637277 c -0.1674107,0 -0.3482143,0 -0.3482143,0.2008929 0,0.2008928 0.1808036,0.2008928 0.3482143,0.2008928 z m 0,0"
         style="fill:#ff0000;fill-opacity:1;fill-rule:nonzero;stroke:none" />
      <path
         id="path43"
         d="m 2.9672991,-3.3084866 v -1.0982143 l -1.3794643,0.1138393 v 0.3080357 c 0.6964286,0 0.7767857,0.066964 0.7767857,0.5558036 v 2.67187498 c 0,0.44866071 -0.1138393,0.44866071 -0.7767857,0.44866071 V -4.5089286e-4 C 1.9762277,-0.00714732 2.4449777,-0.02723661 2.7195312,-0.02723661 c 0.4017858,0 0.8705358,0 1.265625,0.0267857171 V -0.30848661 H 3.777567 c -0.7366072,0 -0.7566965,-0.10714285 -0.7566965,-0.46875 V -2.3107187 c 0,-0.9910715 0.4151786,-1.875 1.1785715,-1.875 0.066964,0 0.087053,0 0.1071428,0.013393 -0.033482,0.0067 -0.2276786,0.1272322 -0.2276786,0.3883929 0,0.2745535 0.2075893,0.4285714 0.4285715,0.4285714 0.1741071,0 0.4285714,-0.1205357 0.4285714,-0.4419643 0,-0.3214286 -0.3080357,-0.609375 -0.7366071,-0.609375 -0.7299108,0 -1.0915179,0.6696429 -1.2321429,1.0982141 z m 0,0"
         style="fill:#ff0000;fill-opacity:1;fill-rule:nonzero;stroke:none" />
    </g>
    <path
       id="path44"
       d="m 61.06184,95.68068 c 0,1.65071 -1.33813,2.98883 -2.98883,2.98883 -1.65071,0 -2.98883,-1.33812 -2.98883,-2.98883 0,-1.65071 1.33812,-2.98883 2.98883,-2.98883 1.6507,0 2.98883,1.33812 2.98883,2.98883 z"
       style="fill:#000000;fill-opacity:1;fill-rule:nonzero;stroke:none"
       transform="matrix(1.3333333,0,0,-1.3333333,155.02933,303.224)" />
    <path
       id="path45"
       d="m 4.5059375,-4.2927098 c 0,-0.040179 -0.033482,-0.1004464 -0.1004464,-0.1004464 -0.1138393,0 -0.5089286,0.3950892 -0.6763393,0.6830357 -0.2209822,-0.5357143 -0.609375,-0.6964286 -0.9308036,-0.6964286 -1.171875,0 -2.39732141,1.4799107 -2.39732141,2.9196429 0,0.97767852 0.58258928,1.59374995 1.31250001,1.59374995 0.4285714,0 0.8169643,-0.234375 1.1785714,-0.59598214 -0.09375,0.34821428 -0.421875,1.69419639 -0.4486607,1.78124999 -0.080357,0.28125 -0.1607143,0.3214286 -0.7232143,0.3348214 -0.1272321,0 -0.2276786,0 -0.2276786,0.1941965 0,0.013393 0,0.1138393 0.1339286,0.1138393 0.3147322,0 0.6629464,-0.033482 0.9910714,-0.033482 0.3415179,0 0.703125,0.033482 1.03125,0.033482 0.046875,0 0.1741072,0 0.1741072,-0.2008929 0,-0.1071429 -0.09375,-0.1071429 -0.2544643,-0.1071429 -0.4821429,0 -0.4821429,-0.073661 -0.4821429,-0.1607142 0,-0.073661 0.020089,-0.1339286 0.040179,-0.2209822 z m -2.765625,4.18526784 c -0.5959821,0 -0.6361607,-0.77008929 -0.6361607,-0.93750004 0,-0.4821428 0.2879464,-1.5669642 0.4620536,-1.9821428 0.3080357,-0.7366072 0.8236607,-1.1584822 1.2321428,-1.1584822 0.6495536,0 0.7901786,0.8102679 0.7901786,0.8772322 0,0.060268 -0.5491072,2.2433036 -0.5825893,2.2834821 -0.1473214,0.27455359 -0.703125,0.91741074 -1.265625,0.91741074 z m 0,0"
       style="fill:#000000;fill-opacity:1;fill-rule:nonzero;stroke:none"
       aria-label="q"
       transform="matrix(2.3333333,0,0,2.3333333,226.85333,162.91867)" />
    <path
       id="path46"
       d="m 140.43387,135.0272 28.73709,13.72907"
       style="fill:none;stroke:#ff0000;stroke-width:0.79701;stroke-linecap:butt;stroke-linejoin:miter;stroke-miterlimit:10;stroke-dasharray:none;stroke-opacity:1"
       transform="matrix(1.3333333,0,0,-1.3333333,155.02933,303.224)" />
    <path
       id="path47"
       d="M 4.66248,0 C 3.28098,0.25902 1.0361,1.0361 -0.51805,1.94269 V -1.94269 C 1.0361,-1.0361 3.28098,-0.25902 4.66248,0"
       style="fill:#ff0000;fill-opacity:1;fill-rule:nonzero;stroke:none"
       transform="matrix(1.203,-0.57470667,-0.57470667,-1.203,380.59059,104.88232)" />
    <g
       id="g47"
       aria-label="ˆr"
       transform="matrix(2.3333333,0,0,2.3333333,355.32,106.11867)">
      <path
         id="path48"
         d="m 2.4912054,-6.9180446 -1.3325893,1.359375 0.1741071,0.1741071 1.1584822,-1.0111607 1.1450892,1.0111607 0.1808036,-0.1741071 z m 0,0"
         style="fill:#ff0000;fill-opacity:1;fill-rule:nonzero;stroke:none" />
      <path
         id="path49"
         d="m 0.42870536,-0.58991964 c -0.0334821,0.15401785 -0.0870536,0.38169643 -0.0870536,0.42857143 0,0.18080357 0.13392857,0.26785714 0.28794642,0.26785714 0.12053572,0 0.29464286,-0.08035714 0.36830358,-0.27455357 0.0200893,-0.0401786 0.35491074,-1.39955356 0.39508934,-1.57366076 0.080357,-0.3348214 0.2611607,-1.03125 0.3214285,-1.2991071 0.040179,-0.1272321 0.3214286,-0.5959821 0.5558036,-0.8169643 0.080357,-0.066964 0.3683036,-0.328125 0.796875,-0.328125 0.2611607,0 0.4084822,0.1205357 0.421875,0.1205357 -0.3013393,0.046875 -0.5223214,0.2879465 -0.5223214,0.5491072 0,0.1607143 0.1138393,0.3482143 0.3816964,0.3482143 0.2678572,0 0.5491072,-0.2276786 0.5491072,-0.5892858 0,-0.3482142 -0.3214286,-0.6495535 -0.8303572,-0.6495535 -0.6428571,0 -1.0848214,0.4888393 -1.2723214,0.7700893 -0.080357,-0.4486608 -0.4419643,-0.7700893 -0.91071433,-0.7700893 -0.45535714,0 -0.64285714,0.3883928 -0.73660714,0.5691964 -0.18080357,0.3415179 -0.30803572,0.9375 -0.30803572,0.9642857 0,0.1004464 0.10044643,0.1004464 0.12053572,0.1004464 0.10044643,0 0.10714285,-0.0067 0.16741071,-0.2276785 0.17410714,-0.7098215 0.36830357,-1.1852679 0.72991072,-1.1852679 0.16741074,0 0.30803574,0.080357 0.30803574,0.4553572 0,0.2142857 -0.026786,0.3214285 -0.1607143,0.8370535 z m 0,0"
         style="fill:#ff0000;fill-opacity:1;fill-rule:nonzero;stroke:none" />
    </g>
  </g>
</svg>
