<?xml version="1.0" encoding="UTF-8" standalone="no"?>
<!-- Created with Inkscape (http://www.inkscape.org/) -->

<svg
   version="1.1"
   id="svg1"
   width="474.95334"
   height="365.30133"
   viewBox="0 0 474.95334 365.30133"
   xmlns="http://www.w3.org/2000/svg"
   xmlns:svg="http://www.w3.org/2000/svg">
  <defs
     id="defs1" />
  <g
     id="g1">
    <path
       id="path1"
       d="M 0,0 -141.73404,-245.48346"
       style="fill:none;stroke:#0000ff;stroke-width:0.3985;stroke-linecap:butt;stroke-linejoin:miter;stroke-miterlimit:10;stroke-dasharray:2.98883, 2.98883;stroke-dashoffset:0;stroke-opacity:1"
       transform="matrix(1.3333333,0,0,-1.3333333,237.476,18.997333)" />
    <path
       id="path2"
       d="M 0,0 141.73404,-245.48346"
       style="fill:none;stroke:#0000ff;stroke-width:0.3985;stroke-linecap:butt;stroke-linejoin:miter;stroke-miterlimit:10;stroke-dasharray:2.98883, 2.98883;stroke-dashoffset:0;stroke-opacity:1"
       transform="matrix(1.3333333,0,0,-1.3333333,237.476,18.997333)" />
    <path
       id="path3"
       d="M -141.73404,-245.48346 H 141.73404"
       style="fill:none;stroke:#0000ff;stroke-width:0.3985;stroke-linecap:butt;stroke-linejoin:miter;stroke-miterlimit:10;stroke-dasharray:2.98883, 2.98883;stroke-dashoffset:0;stroke-opacity:1"
       transform="matrix(1.3333333,0,0,-1.3333333,237.476,18.997333)" />
    <path
       id="path4"
       d="M 0,0 V -245.48346"
       style="fill:none;stroke:#0000ff;stroke-width:0.3985;stroke-linecap:butt;stroke-linejoin:miter;stroke-miterlimit:10;stroke-dasharray:2.98883, 2.98883;stroke-dashoffset:0;stroke-opacity:1"
       transform="matrix(1.3333333,0,0,-1.3333333,237.476,18.997333)" />
    <path
       id="path5"
       d="m -135.75638,-245.48346 c 0,3.30142 -2.67625,5.97766 -5.97766,5.97766 -3.30142,0 -5.97766,-2.67624 -5.97766,-5.97766 0,-3.30141 2.67624,-5.97766 5.97766,-5.97766 3.30141,0 5.97766,2.67625 5.97766,5.97766 z"
       style="fill:#000000;fill-opacity:1;fill-rule:nonzero;stroke:none"
       transform="matrix(1.3333333,0,0,-1.3333333,237.476,18.997333)" />
    <g
       id="g5"
       aria-label="q&#10;1"
       transform="matrix(2.3333333,0,0,2.3333333,11.733333,349.048)">
      <path
         id="path6"
         d="m 4.5071429,-4.2928929 c 0,-0.040178 -0.033482,-0.1004464 -0.1004465,-0.1004464 -0.1138393,0 -0.5089285,0.3950893 -0.6763393,0.6830357 -0.2209821,-0.5357143 -0.609375,-0.6964285 -0.9308035,-0.6964285 -1.171875,0 -2.39732146,1.4799107 -2.39732146,2.9196428 0,0.97767859 0.58258929,1.59375001 1.31249996,1.59375001 0.4285715,0 0.8169643,-0.234375 1.1785715,-0.59598214 -0.09375,0.34821429 -0.421875,1.69419643 -0.4486607,1.78125003 -0.080357,0.28125 -0.1607143,0.3214285 -0.7232143,0.3348214 -0.1272322,0 -0.2276786,0 -0.2276786,0.1941964 0,0.013393 0,0.1138393 0.1339286,0.1138393 0.3147321,0 0.6629464,-0.033482 0.9910714,-0.033482 0.3415179,0 0.703125,0.033482 1.03125,0.033482 0.046875,0 0.1741071,0 0.1741071,-0.2008928 C 3.8241071,1.62675 3.7303571,1.62675 3.5696429,1.62675 3.0875,1.62675 3.0875,1.5530893 3.0875,1.4660357 c 0,-0.073661 0.020089,-0.1339286 0.040179,-0.2209821 z m -2.765625,4.1852679 c -0.5959822,0 -0.6361608,-0.77008929 -0.6361608,-0.9375 0,-0.4821429 0.2879465,-1.5669643 0.4620536,-1.9821429 C 1.8754464,-3.763875 2.3910714,-4.18575 2.7995536,-4.18575 c 0.6495535,0 0.7901785,0.8102679 0.7901785,0.8772321 0,0.060268 -0.5491071,2.2433036 -0.5825892,2.2834822 -0.1473215,0.27455356 -0.703125,0.9174107 -1.265625,0.9174107 z m 0,0"
         style="fill:#000000;fill-opacity:1;fill-rule:nonzero;stroke:none" />
      <path
         id="path7"
         d="m 6.7839286,-2.9385402 c 0,-0.1875 -0.013393,-0.1941964 -0.2075893,-0.1941964 -0.4486607,0.4352679 -1.0848214,0.4419643 -1.3727679,0.4419643 v 0.2544643 c 0.1674107,0 0.6294643,0 1.0111607,-0.1941965 v 3.55580361 c 0,0.22767859 0,0.32142859 -0.6964285,0.32142859 H 5.2571429 v 0.2477678 c 0.1205357,-0.0067 0.984375,-0.026786 1.2388392,-0.026786 0.2142858,0 1.0915179,0.020089 1.2455358,0.026786 V 1.2467277 H 7.4803571 c -0.6964285,0 -0.6964285,-0.09375 -0.6964285,-0.32142859 z m 0,0"
         style="fill:#000000;fill-opacity:1;fill-rule:nonzero;stroke:none" />
    </g>
    <path
       id="path8"
       d="M 7.97021,0 C 7.97021,4.40187 4.40187,7.97021 0,7.97021 -4.40187,7.97021 -7.97021,4.40187 -7.97021,0 c 0,-4.40187 3.56834,-7.97021 7.97021,-7.97021 4.40187,0 7.97021,3.56834 7.97021,7.97021 z"
       style="fill:#000000;fill-opacity:1;fill-rule:nonzero;stroke:none"
       transform="matrix(1.3333333,0,0,-1.3333333,237.476,18.997333)" />
    <g
       id="g8"
       aria-label="q&#10;2"
       transform="matrix(2.3333333,0,0,2.3333333,200.70933,21.741333)">
      <path
         id="path9"
         d="m 4.5073839,-4.2920446 c 0,-0.040179 -0.033482,-0.1004465 -0.1004464,-0.1004465 -0.1138393,0 -0.5089286,0.3950893 -0.6763393,0.6830357 -0.2209821,-0.5357142 -0.609375,-0.6964285 -0.9308036,-0.6964285 -1.171875,0 -2.39732139,1.4799107 -2.39732139,2.9196428 0,0.9776786 0.58258929,1.59375003 1.31249999,1.59375003 0.4285714,0 0.8169643,-0.234375 1.1785714,-0.59598214 -0.09375,0.34821428 -0.421875,1.69419641 -0.4486607,1.78125001 -0.080357,0.28125 -0.1607143,0.3214286 -0.7232143,0.3348214 -0.1272321,0 -0.2276785,0 -0.2276785,0.1941964 0,0.013393 0,0.1138393 0.1339285,0.1138393 0.3147322,0 0.6629465,-0.033482 0.9910715,-0.033482 0.3415178,0 0.703125,0.033482 1.03125,0.033482 0.046875,0 0.1741071,0 0.1741071,-0.2008928 0,-0.1071429 -0.09375,-0.1071429 -0.2544643,-0.1071429 -0.4821428,0 -0.4821428,-0.073661 -0.4821428,-0.1607143 0,-0.073661 0.020089,-0.1339285 0.040178,-0.2209821 z m -2.765625,4.18526781 c -0.5959821,0 -0.6361607,-0.77008928 -0.6361607,-0.93750001 0,-0.4821428 0.2879464,-1.5669643 0.4620536,-1.9821428 0.3080357,-0.7366072 0.8236607,-1.1584822 1.2321428,-1.1584822 0.6495536,0 0.7901786,0.8102679 0.7901786,0.8772322 0,0.060268 -0.5491071,2.2433035 -0.5825893,2.2834821 -0.1473214,0.27455357 -0.703125,0.91741071 -1.265625,0.91741071 z m 0,0"
         style="fill:#000000;fill-opacity:1;fill-rule:nonzero;stroke:none" />
      <path
         id="path10"
         d="M 7.9694375,0.22804464 H 7.7283661 c -0.020089,0.14732143 -0.087054,0.5625 -0.1808036,0.62946429 -0.053571,0.046875 -0.5892857,0.046875 -0.6897321,0.046875 H 5.5788125 c 0.7299107,-0.64955357 0.9709821,-0.84375 1.3928571,-1.171875 0.515625,-0.41517857 0.9977679,-0.84375003 0.9977679,-1.50669643 0,-0.84375 -0.7433036,-1.359375 -1.6339286,-1.359375 -0.8638393,0 -1.4464285,0.6026786 -1.4464285,1.2455357 0,0.3549107 0.2946428,0.3883929 0.3683035,0.3883929 0.1674107,0 0.3683036,-0.1138393 0.3683036,-0.3683036 0,-0.1272321 -0.046875,-0.3683036 -0.4084821,-0.3683036 0.2142857,-0.4955357 0.6897321,-0.6495535 1.0111607,-0.6495535 0.703125,0 1.0647321,0.5424107 1.0647321,1.1116071 0,0.6026786 -0.4352678,1.08482143 -0.65625,1.33928571 L 4.9560446,1.2191161 c -0.066964,0.066964 -0.066964,0.080357 -0.066964,0.2745535 H 7.755152 Z m 0,0"
         style="fill:#000000;fill-opacity:1;fill-rule:nonzero;stroke:none" />
    </g>
    <path
       id="path11"
       d="m 149.70425,-245.48346 c 0,4.40189 -3.56832,7.97022 -7.97021,7.97022 -4.40189,0 -7.97022,-3.56833 -7.97022,-7.97022 0,-4.40189 3.56833,-7.97021 7.97022,-7.97021 4.40189,0 7.97021,3.56832 7.97021,7.97021 z"
       style="fill:#000000;fill-opacity:1;fill-rule:nonzero;stroke:none"
       transform="matrix(1.3333333,0,0,-1.3333333,237.476,18.997333)" />
    <g
       id="g11"
       aria-label="q&#10;3"
       transform="matrix(2.3333333,0,0,2.3333333,442.41433,349.048)">
      <path
         id="path12"
         d="m 4.5065804,-4.2928929 c 0,-0.040178 -0.033482,-0.1004464 -0.1004465,-0.1004464 -0.1138393,0 -0.5089285,0.3950893 -0.6763393,0.6830357 -0.2209821,-0.5357143 -0.609375,-0.6964285 -0.9308035,-0.6964285 -1.171875,0 -2.39732146,1.4799107 -2.39732146,2.9196428 0,0.97767859 0.58258929,1.59375001 1.31249996,1.59375001 0.4285715,0 0.8169643,-0.234375 1.1785715,-0.59598214 -0.09375,0.34821429 -0.421875,1.69419643 -0.4486607,1.78125003 -0.080357,0.28125 -0.1607143,0.3214285 -0.7232143,0.3348214 -0.1272322,0 -0.2276786,0 -0.2276786,0.1941964 0,0.013393 0,0.1138393 0.1339286,0.1138393 0.3147321,0 0.6629464,-0.033482 0.9910714,-0.033482 0.3415179,0 0.703125,0.033482 1.03125,0.033482 0.046875,0 0.1741071,0 0.1741071,-0.2008928 0,-0.1071429 -0.09375,-0.1071429 -0.2544642,-0.1071429 -0.4821429,0 -0.4821429,-0.073661 -0.4821429,-0.1607143 0,-0.073661 0.020089,-0.1339286 0.040179,-0.2209821 z m -2.765625,4.1852679 c -0.5959822,0 -0.6361608,-0.77008929 -0.6361608,-0.9375 0,-0.4821429 0.2879465,-1.5669643 0.4620536,-1.9821429 C 1.8748839,-3.763875 2.3905089,-4.18575 2.7989911,-4.18575 c 0.6495535,0 0.7901785,0.8102679 0.7901785,0.8772321 0,0.060268 -0.5491071,2.2433036 -0.5825892,2.2834822 -0.1473215,0.27455356 -0.703125,0.9174107 -1.265625,0.9174107 z m 0,0"
         style="fill:#000000;fill-opacity:1;fill-rule:nonzero;stroke:none" />
      <path
         id="path13"
         d="m 6.3497723,-0.83586161 c 0.5424107,0 0.9375,0.38169643 0.9375,1.125 0,0.86383931 -0.5022321,1.12500001 -0.9107143,1.12500001 -0.2745535,0 -0.890625,-0.080357 -1.1852678,-0.48883929 0.328125,-0.0133929 0.4084821,-0.24776786 0.4084821,-0.39508929 0,-0.22098214 -0.1674107,-0.38169643 -0.3816964,-0.38169643 -0.2008929,0 -0.3950893,0.12053572 -0.3950893,0.40178572 0,0.65624999 0.7232143,1.08482139 1.5669643,1.08482139 0.9709821,0 1.640625,-0.64955354 1.640625,-1.34598211 0,-0.54241071 -0.4486607,-1.08482143 -1.2120536,-1.24553571 0.7299107,-0.26785718 0.9977679,-0.79017858 0.9977679,-1.21874998 0,-0.5491072 -0.6361607,-0.9575893 -1.40625,-0.9575893 -0.7767857,0 -1.3727679,0.375 -1.3727679,0.9308036 0,0.2410714 0.1540179,0.3683035 0.3683036,0.3683035 0.2142857,0 0.3549107,-0.1607142 0.3549107,-0.3549107 0,-0.2008928 -0.140625,-0.3482143 -0.3549107,-0.3616071 0.2410714,-0.3080357 0.7232143,-0.3816964 0.9776786,-0.3816964 0.3147321,0 0.7566964,0.1540178 0.7566964,0.7566964 0,0.2946428 -0.1004464,0.6160714 -0.28125,0.8303571 -0.2276786,0.2678572 -0.421875,0.28125 -0.7700893,0.3013393 -0.1741071,0.013393 -0.1875,0.013393 -0.2276786,0.020089 -0.013393,0 -0.066964,0.013393 -0.066964,0.09375 0,0.09375 0.060268,0.09375 0.1808036,0.09375 z m 0,0"
         style="fill:#000000;fill-opacity:1;fill-rule:nonzero;stroke:none" />
    </g>
    <path
       id="path14"
       d="m 7.97021,-245.48346 c 0,4.40189 -3.56834,7.97022 -7.97021,7.97022 -4.40187,0 -7.97021,-3.56833 -7.97021,-7.97022 0,-4.40189 3.56834,-7.97021 7.97021,-7.97021 4.40187,0 7.97021,3.56832 7.97021,7.97021 z"
       style="fill:#ff0000;fill-opacity:1;fill-rule:nonzero;stroke:none"
       transform="matrix(1.3333333,0,0,-1.3333333,237.476,18.997333)" />
    <path
       id="path15"
       d="M 3.0193036,-3.1476741 H 4.7135 c 1.4129464,0 2.7991071,-1.0379464 2.7991071,-2.15625 0,-0.7633929 -0.65625,-1.5 -1.9620535,-1.5 H 2.322875 c -0.1941964,0 -0.3013393,0 -0.3013393,0.1875 0,0.1205357 0.087054,0.1205357 0.2879464,0.1205357 0.1339286,0 0.3080358,0.0067 0.4285715,0.020089 0.1607143,0.020089 0.2209821,0.046875 0.2209821,0.1607143 0,0.040179 -0.013393,0.066964 -0.040179,0.1875 l -1.3325892,5.35044641 c -0.1004465,0.38839285 -0.1205358,0.46875 -0.91071433,0.46875 -0.16741071,0 -0.27455357,0 -0.27455357,0.1875 0,0.12053571143 0.11383929,0.12053571143 0.14732143,0.12053571143 0.28125,0 0.98437497,-0.0267857114 1.26562497,-0.0267857114 0.2075893,0 0.4285715,0.0066964 0.6361607,0.0066964 0.2209822,0 0.4419643,0.0200892814 0.6495536,0.0200892814 0.066964,0 0.2008929,0 0.2008929,-0.20089286143 0,-0.10714285 -0.09375,-0.10714285 -0.28125,-0.10714285 -0.3683036,0 -0.6495536,0 -0.6495536,-0.18080357 0,-0.0602679 0.020089,-0.10714286 0.033482,-0.16741072 z m 0.7165178,-2.9732143 c 0.087054,-0.3482143 0.1071429,-0.375 0.5357143,-0.375 H 5.229125 c 0.8303571,0 1.359375,0.2678572 1.359375,0.9575893 0,0.3883929 -0.2008929,1.2455357 -0.5892857,1.6004464 C 5.4969821,-3.489192 4.901,-3.4088348 4.4657321,-3.4088348 h -1.40625 z m 0,0"
       style="fill:#ff0000;fill-opacity:1;fill-rule:nonzero;stroke:none"
       aria-label="P"
       transform="matrix(2.3333333,0,0,2.3333333,245.68933,338.09067)" />
  </g>
</svg>
