<?xml version="1.0" encoding="UTF-8" standalone="no"?>
<!-- Created with Inkscape (http://www.inkscape.org/) -->

<svg
   version="1.1"
   id="svg1"
   width="460.11469"
   height="386.12933"
   viewBox="0 0 460.11469 386.12933"
   xmlns="http://www.w3.org/2000/svg"
   xmlns:svg="http://www.w3.org/2000/svg">
  <defs
     id="defs1" />
  <g
     id="g1">
    <path
       id="path1"
       d="M 0,0 -74.16515,-69.69171"
       style="fill:none;stroke:#000000;stroke-width:0.79701;stroke-linecap:butt;stroke-linejoin:miter;stroke-miterlimit:10;stroke-dasharray:none;stroke-opacity:1"
       transform="matrix(1.3333333,0,0,-1.3333333,181.88533,262.20267)" />
    <path
       id="path2"
       d="M 4.66248,0 C 3.28098,0.25902 1.0361,1.0361 -0.51805,1.94269 V -1.94269 C 1.0361,-1.0361 3.28098,-0.25902 4.66248,0"
       style="fill:#000000;fill-opacity:1;fill-rule:nonzero;stroke:none"
       transform="matrix(-0.9716,0.913,0.913,0.9716,82.998467,355.12495)" />
    <path
       id="path3"
       d="m 2.8318616,-6.2272857 c 0,-0.2008929 -0.140625,-0.3616072 -0.3683036,-0.3616072 -0.2745535,0 -0.5424107,0.2611608 -0.5424107,0.5290179 0,0.1941964 0.140625,0.3616071 0.3816965,0.3616071 0.2276785,0 0.5290178,-0.2276785 0.5290178,-0.5290178 z m -0.7566964,3.7433036 c 0.1138393,-0.2879465 0.1138393,-0.3080358 0.2142857,-0.5758929 0.080357,-0.2008929 0.1339286,-0.3348214 0.1339286,-0.5290179 0,-0.4486607 -0.3214286,-0.8169642 -0.8169643,-0.8169642 -0.93750002,0 -1.31919645,1.4464285 -1.31919645,1.5334821 0,0.1004464 0.10044643,0.1004464 0.12053571,0.1004464 0.10044643,0 0.10714286,-0.020089 0.16071429,-0.1741071 0.26785714,-0.9375 0.66964285,-1.2388393 1.00446425,-1.2388393 0.080357,0 0.2477679,0 0.2477679,0.3214286 0,0.2075893 -0.066964,0.4151785 -0.1071429,0.515625 -0.080357,0.2611607 -0.5290178,1.4129464 -0.6897321,1.8415178 -0.10044644,0.2611607 -0.22767858,0.58928574 -0.22767858,0.79687503 0,0.46875 0.34151788,0.81696428 0.81696428,0.81696428 0.9375,0 1.3058036,-1.43973211 1.3058036,-1.53348211 0,-0.1004465 -0.087054,-0.1004465 -0.1205357,-0.1004465 -0.1004465,0 -0.1004465,0.033482 -0.1473215,0.1808036 C 2.4702545,-0.716125 2.1421295,-0.10675 1.6332009,-0.10675 c -0.1674107,0 -0.2410714,-0.10044643 -0.2410714,-0.328125 0,-0.25446429 0.060268,-0.39508929 0.2879464,-0.9977679 z m 0,0"
       style="fill:#000000;fill-opacity:1;fill-rule:nonzero;stroke:none"
       aria-label="i"
       transform="matrix(2.3333333,0,0,2.3333333,69.294667,371.90533)" />
    <path
       id="path4"
       d="M 0,0 181.83534,-22.63493"
       style="fill:none;stroke:#000000;stroke-width:0.79701;stroke-linecap:butt;stroke-linejoin:miter;stroke-miterlimit:10;stroke-dasharray:none;stroke-opacity:1"
       transform="matrix(1.3333333,0,0,-1.3333333,181.88533,262.20267)" />
    <path
       id="path5"
       d="M 4.66248,0 C 3.28098,0.25902 1.0361,1.0361 -0.51805,1.94269 V -1.94269 C 1.0361,-1.0361 3.28098,-0.25902 4.66248,0"
       style="fill:#000000;fill-opacity:1;fill-rule:nonzero;stroke:none"
       transform="matrix(1.32308,0.16466667,0.16466667,-1.32308,424.33244,292.38257)" />
    <path
       id="path6"
       d="m 3.9583616,-6.2270491 c 0,-0.1875 -0.140625,-0.3616071 -0.3816964,-0.3616071 -0.2276786,0 -0.5290179,0.234375 -0.5290179,0.5290178 0,0.2008929 0.140625,0.3616072 0.3683036,0.3616072 0.2745536,0 0.5424107,-0.2611608 0.5424107,-0.5290179 z M 1.9561295,0.49616518 C 1.761933,1.2528616 1.2864866,1.822058 0.73068304,1.822058 c -0.0602679,0 -0.21428572,0 -0.38839286,-0.087053 0.29464286,-0.073661 0.44866071,-0.328125 0.44866071,-0.5290179 0,-0.1607143 -0.11383928,-0.34821428 -0.38169643,-0.34821428 -0.24776785,0 -0.53571428,0.20758928 -0.53571428,0.56919648 0,0.3950892 0.39508928,0.6160714 0.87723214,0.6160714 0.69642858,0 1.62053568,-0.5290179 1.86830358,-1.51339288 L 3.5364866,-3.1199062 c 0.053571,-0.2008929 0.053571,-0.3348215 0.053571,-0.3683036 0,-0.5691964 -0.421875,-0.9174107 -0.9174107,-0.9174107 -1.0178571,0 -1.5870535,1.4464285 -1.5870535,1.5334821 0,0.1004464 0.1004464,0.1004464 0.1205357,0.1004464 0.087053,0 0.1004464,-0.0067 0.1808035,-0.1941964 0.2477679,-0.609375 0.703125,-1.21875 1.2522322,-1.21875 0.140625,0 0.3214286,0.040179 0.3214286,0.4553572 0,0.234375 -0.033482,0.3415178 -0.066964,0.5089285 z m 0,0"
       style="fill:#000000;fill-opacity:1;fill-rule:nonzero;stroke:none"
       aria-label="j"
       transform="matrix(2.3333333,0,0,2.3333333,437.47867,300.104)" />
    <path
       id="path7"
       d="M 0,0 V 168.48077"
       style="fill:none;stroke:#000000;stroke-width:0.79701;stroke-linecap:butt;stroke-linejoin:miter;stroke-miterlimit:10;stroke-dasharray:none;stroke-opacity:1"
       transform="matrix(1.3333333,0,0,-1.3333333,181.88533,262.20267)" />
    <path
       id="path8"
       d="M 4.66248,0 C 3.28098,0.25902 1.0361,1.0361 -0.51805,1.94269 V -1.94269 C 1.0361,-1.0361 3.28098,-0.25902 4.66248,0"
       style="fill:#000000;fill-opacity:1;fill-rule:nonzero;stroke:none"
       transform="matrix(0,-1.3333333,-1.3333333,0,181.88533,37.56164)" />
    <path
       id="path9"
       d="m 2.859125,-6.804 c 0,-0.013393 0,-0.1138393 -0.1272321,-0.1138393 -0.234375,0 -0.9575893,0.080357 -1.21875,0.1004464 -0.080357,0.013393 -0.1875,0.020089 -0.1875,0.2008929 0,0.1205357 0.087053,0.1205357 0.2410714,0.1205357 0.4754464,0 0.4955357,0.066964 0.4955357,0.1674107 l -0.026786,0.2008929 -1.44642859,5.73883927 c -0.0401786,0.140625 -0.0401786,0.16071429 -0.0401786,0.22098214 0,0.22767858 0.20089286,0.27455358 0.28794643,0.27455358 0.12723214,0 0.28125006,-0.08705358 0.34151786,-0.20758929 0.046875,-0.0870536 0.4955357,-1.9352679 0.5558036,-2.1830357 0.3415179,0.033482 1.1584821,0.1941964 1.1584821,0.8504464 0,0.066964 0,0.1071429 -0.033482,0.2075893 -0.020089,0.1205357 -0.040179,0.24107143 -0.040179,0.34821429 0,0.58928571 0.4017857,0.984375 0.9174107,0.984375 0.3013393,0 0.5691965,-0.15401786 0.7901786,-0.52232143 0.2477679,-0.44196429 0.3549107,-0.99107146 0.3549107,-1.01116076 0,-0.1004464 -0.087053,-0.1004464 -0.1205357,-0.1004464 -0.1004464,0 -0.1071428,0.040179 -0.140625,0.1808036 -0.1941964,0.7299107 -0.4285714,1.23883927 -0.8638393,1.23883927 -0.1875,0 -0.3214285,-0.11383928 -0.3214285,-0.46875 0,-0.17410714 0.040179,-0.40178571 0.080357,-0.56249997 0.040179,-0.1674107 0.040179,-0.2075893 0.040179,-0.3080357 0,-0.6428572 -0.6294643,-0.9375 -1.4732143,-1.0446429 0.3080357,-0.1808036 0.6294643,-0.4955357 0.8571428,-0.7366071 0.4754465,-0.5290179 0.9375,-0.9575893 1.4263393,-0.9575893 0.060268,0 0.066964,0 0.087054,0.013393 0.1205357,0.020089 0.1272321,0.020089 0.2075893,0.073661 0.020089,0.013393 0.020089,0.020089 0.040179,0.040179 -0.4754465,0.033482 -0.5625,0.421875 -0.5625,0.5424107 0,0.1607143 0.1071428,0.3482143 0.375,0.3482143 0.2611607,0 0.5491071,-0.2209821 0.5491071,-0.609375 0,-0.3013393 -0.2276786,-0.6294643 -0.6763393,-0.6294643 -0.28125,0 -0.7366071,0.080357 -1.4598214,0.8772322 C 2.5912679,-3.14775 2.202875,-2.7526607 1.8211786,-2.5986429 Z m 0,0"
       style="fill:#000000;fill-opacity:1;fill-rule:nonzero;stroke:none"
       aria-label="k"
       transform="matrix(2.3333333,0,0,2.3333333,175.46933,27.876)" />
    <path
       id="path10"
       d="M 171.96844,99.77531 C 94.40576,-53.0213 -38.78133,-36.44217 -41.22992,-67.08963"
       style="fill:none;stroke:#ff8000;stroke-width:4.98138;stroke-linecap:butt;stroke-linejoin:miter;stroke-miterlimit:10;stroke-dasharray:none;stroke-opacity:1"
       transform="matrix(1.3333333,0,0,-1.3333333,181.88533,262.20267)" />
    <path
       id="path11"
       d="M 171.96844,99.77531 C 94.40576,-53.0213 -38.78133,-36.44217 -41.22992,-67.08963"
       style="fill:none;stroke:#000000;stroke-width:2.98883;stroke-linecap:butt;stroke-linejoin:miter;stroke-miterlimit:10;stroke-dasharray:2.98883, 1.99255;stroke-dashoffset:0;stroke-opacity:1"
       transform="matrix(1.3333333,0,0,-1.3333333,181.88533,262.20267)" />
    <path
       id="path12"
       d="m -67.86734,-63.77382 26.63742,-3.31581"
       style="fill:none;stroke:#000000;stroke-width:0.3985;stroke-linecap:butt;stroke-linejoin:miter;stroke-miterlimit:10;stroke-dasharray:2.98883, 2.98883;stroke-dashoffset:0;stroke-opacity:1"
       transform="matrix(1.3333333,0,0,-1.3333333,181.88533,262.20267)" />
    <g
       id="g12"
       aria-label="x&#10;1"
       transform="matrix(2.3333333,0,0,2.3333333,75.988,335.092)">
      <path
         id="path13"
         d="m 3.3282455,-3.0059464 c 0.060268,-0.2611607 0.2879465,-1.1785715 0.984375,-1.1785715 0.053571,0 0.2879465,0 0.5022322,0.1272322 -0.28125,0.053571 -0.4821429,0.3013393 -0.4821429,0.5424107 0,0.1607143 0.1138393,0.3482143 0.3816965,0.3482143 0.2209821,0 0.5357142,-0.1808036 0.5357142,-0.5758929 0,-0.5223214 -0.5892857,-0.6629464 -0.9241071,-0.6629464 -0.5825893,0 -0.9308036,0.5290179 -1.0446429,0.7566964 C 3.0269063,-4.3050536 2.491192,-4.4055 2.2032455,-4.4055 c -1.0379464,0 -1.60714282,1.2857143 -1.60714282,1.5334821 0,0.1004465 0.10044643,0.1004465 0.12053571,0.1004465 0.0803571,0 0.11383929,-0.020089 0.12723215,-0.1071429 C 1.1853884,-3.93675 1.8416384,-4.1845179 2.1831563,-4.1845179 c 0.1875,0 0.5357142,0.087054 0.5357142,0.6696429 0,0.3080357 -0.1674107,0.9776786 -0.5357142,2.3705357 -0.1607143,0.61607144 -0.5089286,1.03794644 -0.9441965,1.03794644 -0.060268,0 -0.29464284,0 -0.50223212,-0.13392857 0.24776786,-0.046875 0.46875002,-0.25446428 0.46875002,-0.53571428 0,-0.26785719 -0.22098216,-0.34821429 -0.36830359,-0.34821429 -0.30133929,0 -0.54910715,0.26116071 -0.54910715,0.57589286 0,0.46205357 0.50223215,0.65625 0.93750004,0.65625 0.65625,0 1.0178571,-0.69642857 1.0446428,-0.75669643 0.1205357,0.36830357 0.4821429,0.75669643 1.078125,0.75669643 1.0245536,0 1.59375,-1.28571426 1.59375,-1.53348216 0,-0.1004464 -0.087053,-0.1004464 -0.1205357,-0.1004464 -0.087054,0 -0.1071428,0.040179 -0.1272321,0.1138393 -0.328125,1.06473211 -1.0044643,1.30580354 -1.3258929,1.30580354 -0.3883928,0 -0.5491071,-0.32142857 -0.5491071,-0.66294643 0,-0.21428571 0.060268,-0.43526781 0.1674107,-0.87723211 z m 0,0"
         style="fill:#000000;fill-opacity:1;fill-rule:nonzero;stroke:none" />
      <path
         id="path14"
         d="m 8.0308125,-2.9389821 c 0,-0.1875 -0.013393,-0.1941965 -0.2075893,-0.1941965 -0.4486607,0.4352679 -1.0848214,0.4419643 -1.3727678,0.4419643 V -2.43675 c 0.1674107,0 0.6294642,0 1.0111607,-0.1941964 v 3.55580354 c 0,0.22767856 0,0.32142856 -0.6964286,0.32142856 H 6.5040268 v 0.2477679 c 0.1205357,-0.0067 0.984375,-0.026786 1.2388393,-0.026786 0.2142857,0 1.0915178,0.020089 1.2455357,0.026786 V 1.2462857 H 8.7272411 c -0.6964286,0 -0.6964286,-0.09375 -0.6964286,-0.32142856 z m 0,0"
         style="fill:#000000;fill-opacity:1;fill-rule:nonzero;stroke:none" />
    </g>
    <path
       id="path15"
       d="m -33.79994,-36.44217 c 0,2.75117 -2.23021,4.98139 -4.98139,4.98139 -2.75119,0 -4.98138,-2.23022 -4.98138,-4.98139 0,-2.75119 2.23019,-4.98138 4.98138,-4.98138 2.75118,0 4.98139,2.23019 4.98139,4.98138 z"
       style="fill:#ffffff;fill-opacity:1;fill-rule:nonzero;stroke:none"
       transform="matrix(1.3333333,0,0,-1.3333333,181.88533,262.20267)" />
    <path
       id="path16"
       d="M 0,0 -40.44887,-64.55984"
       style="fill:none;stroke:#0000ff;stroke-width:0.79701;stroke-linecap:butt;stroke-linejoin:miter;stroke-miterlimit:10;stroke-dasharray:none;stroke-opacity:1"
       transform="matrix(1.3333333,0,0,-1.3333333,181.88533,262.20267)" />
    <path
       id="path17"
       d="M 4.66248,0 C 3.28098,0.25902 1.0361,1.0361 -0.51805,1.94269 V -1.94269 C 1.0361,-1.0361 3.28098,-0.25902 4.66248,0"
       style="fill:#0000ff;fill-opacity:1;fill-rule:nonzero;stroke:none"
       transform="matrix(-0.70788,1.1298667,1.1298667,0.70788,127.95351,348.28245)" />
    <g
       id="g17"
       aria-label="⃗x&#10;1"
       transform="matrix(2.3333333,0,0,2.3333333,120.42933,314.43733)">
      <path
         id="path18"
         d="m 5.3505982,-5.9262679 c -0.140625,0.1272322 -0.46875,0.4084822 -0.46875,0.5825893 0,0.1004465 0.1004464,0.2008929 0.2008929,0.2008929 0.087054,0 0.140625,-0.066964 0.1875,-0.1272322 0.1205357,-0.1473214 0.3482143,-0.4285714 0.7901785,-0.6495535 0.066964,-0.040179 0.1674108,-0.087054 0.1674108,-0.2075893 0,-0.1004464 -0.066964,-0.1473214 -0.140625,-0.2008929 C 5.8662232,-6.475375 5.7590804,-6.6561786 5.6787232,-6.89725 5.6586342,-6.984304 5.6184552,-7.1115357 5.4778304,-7.1115357 c -0.1339286,0 -0.1941965,0.1272321 -0.1941965,0.2075893 0,0.046875 0.080357,0.3683035 0.234375,0.5758928 H 2.1630982 c -0.1674107,0 -0.3482143,0 -0.3482143,0.2008929 0,0.2008928 0.1808036,0.2008928 0.3482143,0.2008928 z m 0,0"
         style="fill:#0000ff;fill-opacity:1;fill-rule:nonzero;stroke:none" />
      <path
         id="path19"
         d="m 3.487317,-2.3436786 c 0.3013393,-0.375 0.6763393,-0.8638393 0.9174107,-1.125 0.3080357,-0.3549107 0.7165178,-0.5089285 1.1852678,-0.515625 v -0.3080357 c -0.2611607,0.020089 -0.5558035,0.026786 -0.8169642,0.026786 -0.3013393,0 -0.8236608,-0.020089 -0.9575893,-0.026786 v 0.3080357 c 0.2075893,0.020089 0.2879464,0.1473215 0.2879464,0.3080357 0,0.1607143 -0.1004464,0.2879465 -0.1473214,0.3482143 L 3.3399955,-2.5512679 2.5632098,-3.5557321 c -0.09375,-0.1004465 -0.09375,-0.1205358 -0.09375,-0.1808036 0,-0.1473214 0.1540179,-0.2410714 0.3482143,-0.2477679 v -0.3080357 c -0.2544643,0.0067 -0.9174107,0.026786 -1.0714286,0.026786 -0.2142857,0 -0.6830357,-0.0067 -0.95089282,-0.026786 v 0.3080357 c 0.69642862,0 0.70982142,0.0067 1.17857142,0.609375 l 0.984375,1.2857143 -0.9375,1.18526787 C 1.5453527,-0.32805357 0.95606696,-0.30796429 0.74847768,-0.30796429 V 7.1428571e-5 C 1.0096384,-0.02001786 1.3176741,-0.02671429 1.5721384,-0.02671429 c 0.2946429,0 0.7098214,0.02008929 0.9508929,0.02678571857 V -0.30796429 C 2.3020491,-0.34144643 2.2350848,-0.46867857 2.2350848,-0.616 c 0,-0.22098214 0.2879465,-0.5491071 0.890625,-1.265625 l 0.7633929,0.99776786 c 0.073661,0.10714285 0.2075893,0.26785714 0.2075893,0.328125 0,0.0870536 -0.09375,0.234375 -0.3616072,0.24776785 V 7.1428571e-5 C 4.0364241,-0.006625 4.5922277,-0.02671429 4.8132098,-0.02671429 c 0.2678572,0 0.65625,0.0066964 0.9575893,0.02678571857 V -0.30796429 c -0.5424107,0 -0.7165178,-0.0200893 -0.9508928,-0.30803571 z m 0,0"
         style="fill:#0000ff;fill-opacity:1;fill-rule:nonzero;stroke:none" />
      <path
         id="path20"
         d="m 8.2233661,-2.9396607 c 0,-0.1875 -0.013393,-0.1941964 -0.2075893,-0.1941964 -0.4486607,0.4352678 -1.0848214,0.4419642 -1.3727679,0.4419642 v 0.2544643 c 0.1674107,0 0.6294643,0 1.0111607,-0.1941964 v 3.55580357 c 0,0.22767853 0,0.32142853 -0.6964285,0.32142853 H 6.6965804 V 1.493375 c 0.1205357,-0.0067 0.984375,-0.026786 1.2388392,-0.026786 0.2142858,0 1.0915179,0.020089 1.2455358,0.026786 V 1.2456071 H 8.9197946 c -0.6964285,0 -0.6964285,-0.09375 -0.6964285,-0.32142853 z m 0,0"
         style="fill:#0000ff;fill-opacity:1;fill-rule:nonzero;stroke:none" />
    </g>
    <g
       id="g20"
       aria-label="q&#10;1"
       transform="matrix(2.3333333,0,0,2.3333333,116.51067,369.876)">
      <path
         id="path21"
         d="m 4.5071473,-4.2928393 c 0,-0.040179 -0.033482,-0.1004464 -0.1004464,-0.1004464 -0.1138393,0 -0.5089286,0.3950893 -0.6763393,0.6830357 -0.2209821,-0.5357143 -0.609375,-0.6964286 -0.9308036,-0.6964286 -1.171875,0 -2.39732139,1.4799107 -2.39732139,2.9196429 0,0.97767856 0.58258928,1.59374999 1.31249999,1.59374999 0.4285714,0 0.8169643,-0.234375 1.1785714,-0.59598215 C 2.799558,-0.14105357 2.471433,1.2049286 2.4446473,1.2919821 2.3642902,1.5732321 2.283933,1.6134107 1.721433,1.6268036 c -0.1272321,0 -0.2276785,0 -0.2276785,0.1941964 0,0.013393 0,0.1138393 0.1339285,0.1138393 0.3147322,0 0.6629465,-0.033482 0.9910715,-0.033482 0.3415178,0 0.703125,0.033482 1.03125,0.033482 0.046875,0 0.1741071,0 0.1741071,-0.2008929 0,-0.1071428 -0.09375,-0.1071428 -0.2544643,-0.1071428 -0.4821428,0 -0.4821428,-0.073661 -0.4821428,-0.1607143 0,-0.073661 0.020089,-0.1339286 0.040179,-0.2209822 z m -2.765625,4.18526787 c -0.5959821,0 -0.6361607,-0.77008928 -0.6361607,-0.93749997 0,-0.4821429 0.2879464,-1.5669643 0.4620536,-1.9821429 0.3080357,-0.7366071 0.8236607,-1.1584821 1.2321428,-1.1584821 0.6495536,0 0.7901786,0.8102678 0.7901786,0.8772321 0,0.060268 -0.5491071,2.2433036 -0.5825893,2.2834822 -0.1473214,0.27455353 -0.703125,0.91741067 -1.265625,0.91741067 z m 0,0"
         style="fill:#0000ff;fill-opacity:1;fill-rule:nonzero;stroke:none" />
      <path
         id="path22"
         d="m 6.783933,-2.9384866 c 0,-0.1875 -0.013393,-0.1941964 -0.2075892,-0.1941964 -0.4486608,0.4352678 -1.0848215,0.4419642 -1.3727679,0.4419642 v 0.2544643 c 0.1674107,0 0.6294643,0 1.0111607,-0.1941964 v 3.55580358 c 0,0.22767852 0,0.32142852 -0.6964286,0.32142852 H 5.2571473 v 0.2477679 c 0.1205357,-0.0067 0.984375,-0.026786 1.2388393,-0.026786 0.2142857,0 1.0915179,0.020089 1.2455357,0.026786 V 1.2467812 H 7.4803616 c -0.6964286,0 -0.6964286,-0.09375 -0.6964286,-0.32142852 z m 0,0"
         style="fill:#0000ff;fill-opacity:1;fill-rule:nonzero;stroke:none" />
    </g>
    <path
       id="path23"
       d="m 133.1871,-16.57912 38.78134,36.44217"
       style="fill:none;stroke:#000000;stroke-width:0.3985;stroke-linecap:butt;stroke-linejoin:miter;stroke-miterlimit:10;stroke-dasharray:2.98883, 2.98883;stroke-dashoffset:0;stroke-opacity:1"
       transform="matrix(1.3333333,0,0,-1.3333333,181.88533,262.20267)" />
    <g
       id="g23"
       aria-label="y&#10;N"
       transform="matrix(2.3333333,0,0,2.3333333,344.952,302.52933)">
      <path
         id="path24"
         d="m 4.842,-3.7960536 c 0.040179,-0.140625 0.040179,-0.1607143 0.040179,-0.2276785 0,-0.1808036 -0.140625,-0.2678572 -0.2879465,-0.2678572 -0.1004464,0 -0.2611607,0.060268 -0.3482142,0.2075893 -0.020089,0.046875 -0.1004465,0.3549107 -0.140625,0.5357143 -0.066964,0.2611607 -0.140625,0.5290178 -0.2008929,0.796875 l -0.4486607,1.79464284 c -0.040179,0.14732143 -0.46875,0.85044643 -1.125,0.85044643 -0.5089286,0 -0.6160714,-0.44196428 -0.6160714,-0.81026786 0,-0.45535711 0.1674107,-1.07812501 0.5089285,-1.95535711 0.1607143,-0.4084822 0.2008929,-0.515625 0.2008929,-0.7165179 0,-0.4486607 -0.3214286,-0.8169643 -0.8169643,-0.8169643 -0.95089286,0 -1.31919643,1.4464286 -1.31919643,1.5334822 0,0.1004464 0.10044643,0.1004464 0.12053572,0.1004464 0.10044642,0 0.10714285,-0.020089 0.16071428,-0.1741071 0.26785714,-0.9375 0.66964283,-1.2388393 1.00446433,-1.2388393 0.080357,0 0.2477678,0 0.2477678,0.3214285 0,0.2477679 -0.1004464,0.5089286 -0.1674107,0.6964286 -0.4017857,1.0580357 -0.5758929,1.6205357 -0.5758929,2.0892857 0,0.89062503 0.6227679,1.18526789 1.2120536,1.18526789 0.3883929,0 0.7299107,-0.16741072 1.0111607,-0.44866072 C 3.1678929,0.181625 3.0473571,0.67046429 2.6522679,1.1994821 2.3911071,1.5343036 2.0161071,1.82225 1.5540536,1.82225 c -0.140625,0 -0.58928574,-0.026786 -0.75669646,-0.4151786 0.16071429,0 0.28794646,0 0.42857146,-0.1205357 0.1004464,-0.087054 0.2008928,-0.2209821 0.2008928,-0.40848213 0,-0.30803571 -0.2678571,-0.34821428 -0.3683035,-0.34821428 -0.22767861,0 -0.56250004,0.16071428 -0.56250004,0.64955361 0,0.4955357 0.44196428,0.8638392 1.05803574,0.8638392 1.0245535,0 2.0558035,-0.9040178 2.3303571,-2.03571424 z m 0,0"
         style="fill:#000000;fill-opacity:1;fill-rule:nonzero;stroke:none" />
      <path
         id="path25"
         d="m 10.696353,-2.5086652 c 0.07366,-0.2611607 0.180803,-0.4888393 0.743303,-0.5089285 0.03348,0 0.133929,-0.0067 0.133929,-0.1473215 0,-0.046875 -0.03348,-0.1004464 -0.100447,-0.1004464 -0.234375,0 -0.488839,0.026786 -0.72991,0.026786 -0.167411,0 -0.569197,-0.026786 -0.736607,-0.026786 -0.033483,0 -0.1406255,0 -0.1406255,0.1540179 0,0.087054 0.09375,0.09375 0.1540175,0.09375 0.328125,0.013393 0.448661,0.1138392 0.448661,0.2879464 0,0.053571 -0.0067,0.09375 -0.02679,0.1674107 L 9.6784955,0.47794196 7.9106384,-3.1448259 C 7.8503705,-3.2653616 7.8369777,-3.2653616 7.669567,-3.2653616 H 6.7186741 c -0.1339286,0 -0.2276786,0 -0.2276786,0.1540179 0,0.09375 0.087054,0.09375 0.234375,0.09375 0.1473215,0 0.3013393,0.013393 0.4419643,0.040179 L 6.2365312,0.75249554 C 6.1762634,1.0136563 6.0557277,1.2212455 5.513317,1.2480313 c -0.053571,0 -0.1473215,0.0067 -0.1473215,0.140625 0,0.080357 0.053571,0.1071428 0.1004465,0.1071428 0.234375,0 0.4888392,-0.026786 0.7299107,-0.026786 0.1674107,0 0.5691964,0.026786 0.7366071,0.026786 0.066964,0 0.140625,-0.033482 0.140625,-0.1473214 0,-0.09375 -0.087054,-0.1004464 -0.1607143,-0.1004464 C 6.4709062,1.227942 6.4709062,1.0471384 6.4709062,0.95338839 c 0,-0.0267857 0,-0.0669643 0.033482,-0.17410714 l 0.890625,-3.56919645 2.0357143,4.1651786 c 0.053571,0.1138393 0.080357,0.1205357 0.1540178,0.1205357 0.1071429,0 0.1071429,-0.020089 0.140625,-0.1473214 z m 0,0"
         style="fill:#000000;fill-opacity:1;fill-rule:nonzero;stroke:none" />
    </g>
    <path
       id="path26"
       d="M 0,79.91226 171.96844,99.77531"
       style="fill:none;stroke:#000000;stroke-width:0.3985;stroke-linecap:butt;stroke-linejoin:miter;stroke-miterlimit:10;stroke-dasharray:2.98883, 2.98883;stroke-dashoffset:0;stroke-opacity:1"
       transform="matrix(1.3333333,0,0,-1.3333333,181.88533,262.20267)" />
    <g
       id="g26"
       aria-label="z&#10;N"
       transform="matrix(2.3333333,0,0,2.3333333,145.23067,158.916)">
      <path
         id="path27"
         d="m 1.325808,-0.8311875 c 0.5357143,-0.5758929 0.8236608,-0.8236607 1.1852679,-1.1316964 0,-0.013393 0.6160714,-0.5357143 0.9776786,-0.8973215 0.9441964,-0.9241071 1.1651785,-1.40625 1.1651785,-1.4464285 0,-0.1004465 -0.087054,-0.1004465 -0.1071428,-0.1004465 -0.073661,0 -0.1004464,0.020089 -0.1540179,0.1138393 -0.2946428,0.4754465 -0.5089285,0.6361607 -0.7433035,0.6361607 -0.2410715,0 -0.3616072,-0.1473214 -0.5089286,-0.3214285 C 2.9463438,-4.2061875 2.778933,-4.4070804 2.450808,-4.4070804 c -0.75,0 -1.2053571,0.9308036 -1.2053571,1.1383929 0,0.046875 0.026786,0.1071429 0.1205357,0.1071429 0.087054,0 0.1071429,-0.046875 0.1272322,-0.1071429 0.1875,-0.4620536 0.7700892,-0.46875 0.8504464,-0.46875 0.2075893,0 0.3950893,0.066964 0.6227678,0.1473214 0.4017858,0.1540179 0.5089286,0.1540179 0.7700893,0.1540179 -0.3616071,0.4285714 -1.1986607,1.1450893 -1.3861607,1.3058036 l -0.8973214,0.8370535 c -0.67633931,0.66294646 -1.02455359,1.23214289 -1.02455359,1.29910717 0,0.10044643 0.10044643,0.10044643 0.12053571,0.10044643 0.0803571,0 0.10044643,-0.02008929 0.16071429,-0.12723214 0.22767857,-0.34821429 0.52901789,-0.61607143 0.84374999,-0.61607143 0.2276786,0 0.328125,0.0870536 0.5758929,0.375 0.1741071,0.21428571 0.3549107,0.36830357 0.6428571,0.36830357 0.984375,0 1.5602679,-1.265625 1.5602679,-1.5334821 0,-0.046875 -0.040179,-0.1004465 -0.1205357,-0.1004465 -0.087054,0 -0.1071429,0.060268 -0.1339286,0.1339286 -0.234375,0.64285714 -0.8705357,0.83705357 -1.1986607,0.83705357 -0.2008929,0 -0.3816965,-0.0602679 -0.5892857,-0.13392857 -0.3348215,-0.12723214 -0.4888393,-0.16741071 -0.6964286,-0.16741071 -0.020089,0 -0.1808036,0 -0.2678572,0.0267857 z m 0,0"
         style="fill:#000000;fill-opacity:1;fill-rule:nonzero;stroke:none" />
      <path
         id="path28"
         d="m 10.44467,-2.510317 c 0.07366,-0.2611607 0.180803,-0.4888392 0.743303,-0.5089285 0.03348,0 0.133929,-0.0067 0.133929,-0.1473215 0,-0.046875 -0.03348,-0.1004464 -0.100447,-0.1004464 -0.234375,0 -0.488839,0.026786 -0.72991,0.026786 -0.167411,0 -0.5691968,-0.026786 -0.7366075,-0.026786 -0.033482,0 -0.140625,0 -0.140625,0.1540179 0,0.087053 0.09375,0.09375 0.1540179,0.09375 0.3281246,0.013393 0.4486606,0.1138393 0.4486606,0.2879464 0,0.053571 -0.0067,0.09375 -0.02679,0.1674107 L 9.4268125,0.47629018 7.6589554,-3.1464777 C 7.5986875,-3.2670134 7.5852946,-3.2670134 7.4178839,-3.2670134 H 6.4669911 c -0.1339286,0 -0.2276786,0 -0.2276786,0.1540179 0,0.09375 0.087054,0.09375 0.234375,0.09375 0.1473214,0 0.3013393,0.013393 0.4419643,0.040178 L 5.9848482,0.75084375 C 5.9245804,1.0120045 5.8040446,1.2195938 5.2616339,1.2463795 c -0.053571,0 -0.1473214,0.0067 -0.1473214,0.140625 0,0.080357 0.053571,0.1071428 0.1004464,0.1071428 0.234375,0 0.4888393,-0.026786 0.7299107,-0.026786 0.1674108,0 0.5691965,0.026786 0.7366072,0.026786 0.066964,0 0.140625,-0.033482 0.140625,-0.1473214 0,-0.09375 -0.087054,-0.1004464 -0.1607143,-0.1004464 C 6.2192232,1.2262902 6.2192232,1.0454866 6.2192232,0.95173661 c 0,-0.0267857 0,-0.0669643 0.033482,-0.17410715 L 7.1433304,-2.791567 9.1790446,1.3736116 c 0.053572,0.1138393 0.080357,0.1205357 0.1540179,0.1205357 0.1071429,0 0.1071429,-0.020089 0.140625,-0.1473214 z m 0,0"
         style="fill:#000000;fill-opacity:1;fill-rule:nonzero;stroke:none" />
    </g>
    <path
       id="path29"
       d="M 0,0 166.23685,96.02211"
       style="fill:none;stroke:#0000ff;stroke-width:0.79701;stroke-linecap:butt;stroke-linejoin:miter;stroke-miterlimit:10;stroke-dasharray:none;stroke-opacity:1"
       transform="matrix(1.3333333,0,0,-1.3333333,181.88533,262.20267)" />
    <path
       id="path30"
       d="M 4.66248,0 C 3.28098,0.25902 1.0361,1.0361 -0.51805,1.94269 V -1.94269 C 1.0361,-1.0361 3.28098,-0.25902 4.66248,0"
       style="fill:#0000ff;fill-opacity:1;fill-rule:nonzero;stroke:none"
       transform="matrix(1.1545333,-0.66689333,-0.66689333,-1.1545333,403.53447,134.1732)" />
    <g
       id="g30"
       aria-label="⃗x&#10;N"
       transform="matrix(2.3333333,0,0,2.3333333,313.03733,164.8)">
      <path
         id="path31"
         d="m 5.3511875,-5.9260045 c -0.140625,0.1272322 -0.46875,0.4084822 -0.46875,0.5825893 0,0.1004464 0.1004464,0.2008929 0.2008929,0.2008929 0.087053,0 0.140625,-0.066964 0.1875,-0.1272322 0.1205357,-0.1473214 0.3482142,-0.4285714 0.7901785,-0.6495535 0.066964,-0.040179 0.1674107,-0.087054 0.1674107,-0.2075893 0,-0.1004465 -0.066964,-0.1473215 -0.140625,-0.2008929 -0.2209821,-0.1473214 -0.328125,-0.328125 -0.4084821,-0.5691964 -0.020089,-0.087054 -0.060268,-0.2142857 -0.2008929,-0.2142857 -0.1339285,0 -0.1941964,0.1272321 -0.1941964,0.2075893 0,0.046875 0.080357,0.3683035 0.234375,0.5758928 H 2.1636875 c -0.1674107,0 -0.3482143,0 -0.3482143,0.2008929 0,0.2008928 0.1808036,0.2008928 0.3482143,0.2008928 z m 0,0"
         style="fill:#0000ff;fill-opacity:1;fill-rule:nonzero;stroke:none" />
      <path
         id="path32"
         d="m 3.4879063,-2.3434152 c 0.3013392,-0.375 0.6763392,-0.8638393 0.9174107,-1.125 0.3080357,-0.3549107 0.7165178,-0.5089286 1.1852678,-0.515625 v -0.3080357 c -0.2611607,0.020089 -0.5558035,0.026786 -0.8169643,0.026786 -0.3013392,0 -0.8236607,-0.020089 -0.9575892,-0.026786 v 0.3080357 c 0.2075892,0.020089 0.2879464,0.1473214 0.2879464,0.3080357 0,0.1607143 -0.1004464,0.2879465 -0.1473214,0.3482143 L 3.3405848,-2.5510045 2.5637991,-3.5554688 c -0.09375,-0.1004464 -0.09375,-0.1205357 -0.09375,-0.1808035 0,-0.1473215 0.1540179,-0.2410715 0.3482143,-0.2477679 v -0.3080357 c -0.2544643,0.0067 -0.9174107,0.026786 -1.0714286,0.026786 -0.2142857,0 -0.6830357,-0.0067 -0.95089284,-0.026786 v 0.3080357 c 0.69642854,0 0.70982144,0.0067 1.17857144,0.609375 l 0.984375,1.2857143 -0.9375,1.18526786 C 1.545942,-0.32779018 0.95665625,-0.30770089 0.74906696,-0.30770089 V 3.3482143e-4 C 1.0102277,-0.01975446 1.3182634,-0.02645089 1.5727277,-0.02645089 c 0.2946428,0 0.7098214,0.02008928 0.9508928,0.0267857114 V -0.30770089 c -0.2209821,-0.0334821 -0.2879464,-0.16071429 -0.2879464,-0.30803572 0,-0.22098214 0.2879464,-0.54910719 0.890625,-1.26562499 l 0.7633929,0.99776785 c 0.073661,0.10714286 0.2075893,0.26785714 0.2075893,0.328125 0,0.0870536 -0.09375,0.234375 -0.3616072,0.24776786 V 3.3482143e-4 C 4.0370134,-0.00636161 4.592817,-0.02645089 4.8137991,-0.02645089 c 0.2678572,0 0.65625,0.0066964 0.9575893,0.0267857114 V -0.30770089 c -0.5424107,0 -0.7165179,-0.0200893 -0.9508929,-0.30803572 z m 0,0"
         style="fill:#0000ff;fill-opacity:1;fill-rule:nonzero;stroke:none" />
      <path
         id="path33"
         d="m 11.697728,-2.5091518 c 0.07366,-0.2611607 0.180803,-0.4888393 0.743303,-0.5089286 0.03348,0 0.133929,-0.0067 0.133929,-0.1473214 0,-0.046875 -0.03348,-0.1004464 -0.100447,-0.1004464 -0.234375,0 -0.488839,0.026786 -0.72991,0.026786 -0.167411,0 -0.569197,-0.026786 -0.736607,-0.026786 -0.03348,0 -0.140625,0 -0.140625,0.1540178 0,0.087054 0.09375,0.09375 0.154017,0.09375 0.328125,0.013393 0.448661,0.1138393 0.448661,0.2879465 0,0.053571 -0.0067,0.09375 -0.02679,0.1674107 L 10.679871,0.47745536 8.9120134,-3.1453125 C 8.8517455,-3.2658482 8.8383527,-3.2658482 8.670942,-3.2658482 H 7.7200491 c -0.1339286,0 -0.2276786,0 -0.2276786,0.1540178 0,0.09375 0.087054,0.09375 0.234375,0.09375 0.1473215,0 0.3013393,0.013393 0.4419643,0.040179 L 7.2379063,0.75200893 C 7.1776384,1.0131696 7.0571027,1.2207589 6.514692,1.2475446 c -0.053572,0 -0.1473215,0.0067 -0.1473215,0.140625 0,0.080357 0.053572,0.1071429 0.1004465,0.1071429 0.234375,0 0.4888393,-0.026786 0.7299107,-0.026786 0.1674107,0 0.5691964,0.026786 0.7366071,0.026786 0.066964,0 0.140625,-0.033482 0.140625,-0.1473214 0,-0.09375 -0.087054,-0.1004465 -0.1607143,-0.1004465 C 7.4722813,1.2274554 7.4722813,1.0466518 7.4722813,0.95290179 c 0,-0.0267857 0,-0.0669643 0.033482,-0.17410715 l 0.890625,-3.56919644 2.0357147,4.1651786 c 0.05357,0.1138393 0.08036,0.1205357 0.154018,0.1205357 0.107142,0 0.107142,-0.020089 0.140625,-0.1473214 z m 0,0"
         style="fill:#0000ff;fill-opacity:1;fill-rule:nonzero;stroke:none" />
    </g>
    <path
       id="path34"
       d="M 171.96844,99.77531 V 19.86305"
       style="fill:none;stroke:#000000;stroke-width:0.3985;stroke-linecap:butt;stroke-linejoin:miter;stroke-miterlimit:10;stroke-dasharray:2.98883, 2.98883;stroke-dashoffset:0;stroke-opacity:1"
       transform="matrix(1.3333333,0,0,-1.3333333,181.88533,262.20267)" />
    <g
       id="g34"
       aria-label="q&#10;N"
       transform="matrix(2.3333333,0,0,2.3333333,419.38667,131.91467)">
      <path
         id="path35"
         d="m 4.5067187,-4.2926696 c 0,-0.040179 -0.033482,-0.1004465 -0.1004464,-0.1004465 -0.1138393,0 -0.5089286,0.3950893 -0.6763393,0.6830357 -0.2209821,-0.5357142 -0.609375,-0.6964285 -0.9308035,-0.6964285 -1.171875,0 -2.39732146,1.4799107 -2.39732146,2.9196428 0,0.9776786 0.58258928,1.59375003 1.31249996,1.59375003 0.4285715,0 0.8169643,-0.234375 1.1785715,-0.59598214 -0.09375,0.34821428 -0.421875,1.69419641 -0.4486607,1.78125001 -0.080357,0.28125 -0.1607143,0.3214286 -0.7232143,0.3348214 -0.1272322,0 -0.2276786,0 -0.2276786,0.1941964 0,0.013393 0,0.1138393 0.1339286,0.1138393 0.3147321,0 0.6629464,-0.033482 0.9910714,-0.033482 0.3415179,0 0.703125,0.033482 1.03125,0.033482 0.046875,0 0.1741071,0 0.1741071,-0.2008928 0,-0.1071429 -0.09375,-0.1071429 -0.2544643,-0.1071429 -0.4821428,0 -0.4821428,-0.073661 -0.4821428,-0.1607143 0,-0.073661 0.020089,-0.1339285 0.040179,-0.2209821 z m -2.7656249,4.18526781 c -0.5959822,0 -0.6361608,-0.77008928 -0.6361608,-0.93750001 0,-0.4821428 0.2879465,-1.5669643 0.4620536,-1.9821428 0.3080357,-0.7366072 0.8236607,-1.1584822 1.2321429,-1.1584822 0.6495535,0 0.7901785,0.8102679 0.7901785,0.8772322 0,0.060268 -0.5491071,2.2433035 -0.5825892,2.2834821 -0.1473215,0.27455357 -0.703125,0.91741071 -1.265625,0.91741071 z m 0,0"
         style="fill:#0000ff;fill-opacity:1;fill-rule:nonzero;stroke:none" />
      <path
         id="path36"
         d="m 10.260625,-2.5097455 c 0.07366,-0.2611608 0.180804,-0.4888393 0.743304,-0.5089286 0.03348,0 0.133928,-0.0067 0.133928,-0.1473214 0,-0.046875 -0.03348,-0.1004465 -0.100446,-0.1004465 -0.234375,0 -0.48884,0.026786 -0.729911,0.026786 -0.167411,0 -0.5691964,-0.026786 -0.7366071,-0.026786 -0.033482,0 -0.140625,0 -0.140625,0.1540179 0,0.087054 0.09375,0.09375 0.1540178,0.09375 0.328125,0.013393 0.4486603,0.1138393 0.4486603,0.2879464 0,0.053571 -0.0067,0.09375 -0.02679,0.1674107 L 9.2427679,0.47686161 7.4749107,-3.1459063 C 7.4146429,-3.266442 7.40125,-3.266442 7.2338393,-3.266442 H 6.2829464 c -0.1339285,0 -0.2276785,0 -0.2276785,0.1540179 0,0.09375 0.087054,0.09375 0.234375,0.09375 0.1473214,0 0.3013392,0.013393 0.4419642,0.040179 L 5.8008036,0.75141518 C 5.7405357,1.0125759 5.62,1.2201652 5.0775893,1.2469509 c -0.053571,0 -0.1473214,0.0067 -0.1473214,0.140625 0,0.080357 0.053571,0.1071428 0.1004464,0.1071428 0.234375,0 0.4888393,-0.026786 0.7299107,-0.026786 0.1674107,0 0.5691964,0.026786 0.7366071,0.026786 0.066964,0 0.140625,-0.033482 0.140625,-0.1473214 0,-0.09375 -0.087053,-0.1004464 -0.1607142,-0.1004464 C 6.0351786,1.2268616 6.0351786,1.046058 6.0351786,0.95230804 c 0,-0.0267857 0,-0.0669643 0.033482,-0.17410715 L 6.9592857,-2.7909955 8.995,1.374183 c 0.053571,0.1138393 0.080357,0.1205357 0.1540179,0.1205357 0.1071428,0 0.1071428,-0.020089 0.140625,-0.1473214 z m 0,0"
         style="fill:#0000ff;fill-opacity:1;fill-rule:nonzero;stroke:none" />
    </g>
    <path
       id="path37"
       d="m 34.60764,10.00288 c 0,4.40189 -3.56834,7.97022 -7.97022,7.97022 -4.40189,0 -7.97022,-3.56833 -7.97022,-7.97022 0,-4.40188 3.56833,-7.97021 7.97022,-7.97021 4.40188,0 7.97022,3.56833 7.97022,7.97021 z"
       style="fill:#ffffff;fill-opacity:1;fill-rule:nonzero;stroke:none"
       transform="matrix(1.3333333,0,0,-1.3333333,181.88533,262.20267)" />
    <path
       id="path38"
       d="M 26.63742,-3.31581 -41.22992,-67.08963"
       style="fill:none;stroke:#000000;stroke-width:0.3985;stroke-linecap:butt;stroke-linejoin:miter;stroke-miterlimit:10;stroke-dasharray:2.98883, 2.98883;stroke-dashoffset:0;stroke-opacity:1"
       transform="matrix(1.3333333,0,0,-1.3333333,181.88533,262.20267)" />
    <g
       id="g38"
       aria-label="y&#10;1"
       transform="matrix(2.3333333,0,0,2.3333333,206.48933,253.89067)">
      <path
         id="path39"
         d="m 4.841067,-3.7968929 c 0.040179,-0.140625 0.040179,-0.1607142 0.040179,-0.2276785 0,-0.1808036 -0.140625,-0.2678572 -0.2879464,-0.2678572 -0.1004464,0 -0.2611607,0.060268 -0.3482143,0.2075893 -0.020089,0.046875 -0.1004464,0.3549107 -0.140625,0.5357143 -0.066964,0.2611607 -0.140625,0.5290179 -0.2008928,0.796875 l -0.4486607,1.79464286 c -0.040179,0.14732143 -0.46875,0.85044643 -1.125,0.85044643 -0.5089286,0 -0.6160715,-0.44196429 -0.6160715,-0.81026786 0,-0.45535713 0.1674107,-1.07812503 0.5089286,-1.95535713 0.1607143,-0.4084822 0.2008929,-0.515625 0.2008929,-0.7165179 0,-0.4486607 -0.3214286,-0.8169643 -0.8169643,-0.8169643 -0.95089289,0 -1.31919646,1.4464286 -1.31919646,1.5334822 0,0.1004464 0.10044642,0.1004464 0.12053571,0.1004464 0.10044643,0 0.10714286,-0.020089 0.16071429,-0.1741071 0.26785714,-0.9375 0.66964286,-1.2388393 1.00446426,-1.2388393 0.080357,0 0.2477679,0 0.2477679,0.3214286 0,0.2477678 -0.1004464,0.5089285 -0.1674107,0.6964285 -0.4017857,1.0580357 -0.5758929,1.6205357 -0.5758929,2.0892857 0,0.89062504 0.6227679,1.1852679 1.2120536,1.1852679 0.3883928,0 0.7299107,-0.16741071 1.0111607,-0.44866071 C 3.1669598,0.18078571 3.0464241,0.669625 2.6513348,1.1986429 2.3901741,1.5334643 2.0151741,1.8214107 1.5531205,1.8214107 c -0.140625,0 -0.58928568,-0.026786 -0.75669639,-0.4151786 0.16071428,0 0.28794639,0 0.42857139,-0.1205357 C 1.325442,1.1986429 1.4258884,1.0647143 1.4258884,0.87721429 1.4258884,0.56917857 1.1580313,0.529 1.0575848,0.529 c -0.22767855,0 -0.56249998,0.16071429 -0.56249998,0.6495536 0,0.4955357 0.44196429,0.8638393 1.05803568,0.8638393 1.0245536,0 2.0558036,-0.9040179 2.3303572,-2.03571433 z m 0,0"
         style="fill:#000000;fill-opacity:1;fill-rule:nonzero;stroke:none" />
      <path
         id="path40"
         d="m 7.2216473,-2.9380759 c 0,-0.1875 -0.013393,-0.1941964 -0.2075893,-0.1941964 -0.4486607,0.4352678 -1.0848214,0.4419643 -1.3727678,0.4419643 v 0.2544643 c 0.1674107,0 0.6294643,0 1.0111607,-0.1941965 v 3.55580359 c 0,0.22767861 0,0.32142861 -0.6964286,0.32142861 H 5.6948616 v 0.2477678 c 0.1205357,-0.0067 0.984375,-0.026786 1.2388393,-0.026786 0.2142857,0 1.0915179,0.020089 1.2455357,0.026786 V 1.247192 H 7.9180759 c -0.6964286,0 -0.6964286,-0.09375 -0.6964286,-0.32142861 z m 0,0"
         style="fill:#000000;fill-opacity:1;fill-rule:nonzero;stroke:none" />
    </g>
    <path
       id="path41"
       d="M -9.69533,-9.11053 51.5708,-16.73694"
       style="fill:none;stroke:#000000;stroke-width:0.3985;stroke-linecap:butt;stroke-linejoin:miter;stroke-miterlimit:10;stroke-dasharray:2.98883, 2.98883;stroke-dashoffset:0;stroke-opacity:1"
       transform="matrix(1.3333333,0,0,-1.3333333,181.88533,262.20267)" />
    <path
       id="path42"
       d="m 3.3285268,-3.0063527 c 0.060268,-0.2611607 0.2879464,-1.1785714 0.984375,-1.1785714 0.053571,0 0.2879464,0 0.5022321,0.1272321 -0.28125,0.053572 -0.4821428,0.3013393 -0.4821428,0.5424108 0,0.1607142 0.1138393,0.3482142 0.3816964,0.3482142 0.2209821,0 0.5357143,-0.1808035 0.5357143,-0.5758928 0,-0.5223214 -0.5892857,-0.6629464 -0.9241072,-0.6629464 -0.5825892,0 -0.9308035,0.5290178 -1.0446428,0.7566964 -0.2544643,-0.65625 -0.7901786,-0.7566964 -1.078125,-0.7566964 -1.0379464,0 -1.60714287,1.2857142 -1.60714287,1.5334821 0,0.1004464 0.10044643,0.1004464 0.12053571,0.1004464 0.0803571,0 0.11383929,-0.020089 0.12723215,-0.1071428 0.34151781,-1.0580357 0.99776781,-1.3058036 1.33928571,-1.3058036 0.1875,0 0.5357143,0.087054 0.5357143,0.6696429 0,0.3080357 -0.1674107,0.9776785 -0.5357143,2.3705357 -0.1607143,0.61607139 -0.5089286,1.03794639 -0.9441964,1.03794639 -0.060268,0 -0.29464289,0 -0.50223217,-0.13392857 0.24776786,-0.046875 0.46874997,-0.25446428 0.46874997,-0.53571428 0,-0.26785714 -0.22098211,-0.34821424 -0.36830354,-0.34821424 -0.30133929,0 -0.54910715,0.26116066 -0.54910715,0.57589281 0,0.46205357 0.50223215,0.65625 0.93749999,0.65625 0.65625,0 1.0178572,-0.69642857 1.0446429,-0.75669643 0.1205357,0.36830357 0.4821428,0.75669643 1.078125,0.75669643 1.0245535,0 1.59375,-1.28571431 1.59375,-1.53348211 0,-0.1004465 -0.087054,-0.1004465 -0.1205357,-0.1004465 -0.087054,0 -0.1071429,0.040179 -0.1272322,0.1138393 -0.328125,1.06473216 -1.0044643,1.30580359 -1.3258928,1.30580359 -0.3883929,0 -0.5491072,-0.32142857 -0.5491072,-0.66294643 0,-0.21428571 0.060268,-0.43526786 0.1674107,-0.87723216 z m 0,0"
       style="fill:#000000;fill-opacity:1;fill-rule:nonzero;stroke:none"
       aria-label="x"
       transform="matrix(2.3333333,0,0,2.3333333,147.46,279.35467)" />
    <path
       id="path43"
       d="M 61.26614,-7.6264 51.5708,-16.73694"
       style="fill:none;stroke:#000000;stroke-width:0.3985;stroke-linecap:butt;stroke-linejoin:miter;stroke-miterlimit:10;stroke-dasharray:2.98883, 2.98883;stroke-dashoffset:0;stroke-opacity:1"
       transform="matrix(1.3333333,0,0,-1.3333333,181.88533,262.20267)" />
    <path
       id="path44"
       d="m 4.8413884,-3.7977098 c 0.040179,-0.140625 0.040179,-0.1607143 0.040179,-0.2276786 0,-0.1808036 -0.140625,-0.2678571 -0.2879465,-0.2678571 -0.1004464,0 -0.2611607,0.060268 -0.3482142,0.2075893 -0.020089,0.046875 -0.1004465,0.3549107 -0.140625,0.5357142 -0.066964,0.2611608 -0.140625,0.5290179 -0.2008929,0.796875 l -0.4486607,1.79464289 c -0.040179,0.14732143 -0.46875,0.85044643 -1.125,0.85044643 -0.5089286,0 -0.6160714,-0.44196428 -0.6160714,-0.81026786 0,-0.45535716 0.1674107,-1.07812496 0.5089285,-1.95535716 0.1607143,-0.4084821 0.2008929,-0.515625 0.2008929,-0.7165178 0,-0.4486607 -0.3214286,-0.8169643 -0.8169643,-0.8169643 -0.95089286,0 -1.31919644,1.4464286 -1.31919644,1.5334821 0,0.1004465 0.10044643,0.1004465 0.12053572,0.1004465 0.10044643,0 0.10714286,-0.020089 0.16071428,-0.1741072 0.26785715,-0.9375 0.66964284,-1.2388393 1.00446434,-1.2388393 0.080357,0 0.2477678,0 0.2477678,0.3214286 0,0.2477679 -0.1004464,0.5089286 -0.1674107,0.6964286 -0.4017857,1.0580357 -0.5758929,1.6205357 -0.5758929,2.0892857 0,0.89062498 0.6227679,1.18526784 1.2120536,1.18526784 0.3883929,0 0.7299107,-0.16741072 1.0111607,-0.44866072 C 3.1672813,0.17996875 3.0467455,0.66880804 2.6516563,1.1978259 2.3904955,1.5326473 2.0154955,1.8205938 1.553442,1.8205938 c -0.140625,0 -0.58928575,-0.026786 -0.75669646,-0.4151786 0.16071428,0 0.28794646,0 0.42857146,-0.1205357 0.1004464,-0.087054 0.2008928,-0.2209822 0.2008928,-0.40848218 0,-0.30803571 -0.2678571,-0.34821428 -0.3683035,-0.34821428 -0.22767862,0 -0.56250005,0.16071428 -0.56250005,0.64955356 0,0.4955357 0.44196429,0.8638393 1.05803575,0.8638393 1.0245535,0 2.0558035,-0.9040179 2.3303571,-2.03571429 z m 0,0"
       style="fill:#000000;fill-opacity:1;fill-rule:nonzero;stroke:none"
       aria-label="y"
       transform="matrix(2.3333333,0,0,2.3333333,257.45733,259.63867)" />
    <path
       id="path45"
       d="m 54.55963,29.87852 c 0,1.65072 -1.33812,2.98884 -2.98883,2.98884 -1.65071,0 -2.98883,-1.33812 -2.98883,-2.98884 0,-1.65071 1.33812,-2.98882 2.98883,-2.98882 1.65071,0 2.98883,1.33811 2.98883,2.98882 z"
       style="fill:#ffffff;fill-opacity:1;fill-rule:nonzero;stroke:none"
       transform="matrix(1.3333333,0,0,-1.3333333,181.88533,262.20267)" />
    <path
       id="path46"
       d="m 55.55591,85.81728 c 0,2.20094 -1.78417,3.9851 -3.98511,3.9851 -2.20094,0 -3.9851,-1.78416 -3.9851,-3.9851 0,-2.20095 1.78416,-3.98511 3.9851,-3.98511 2.20094,0 3.98511,1.78416 3.98511,3.98511 z"
       style="fill:#ffffff;fill-opacity:1;fill-rule:nonzero;stroke:none"
       transform="matrix(1.3333333,0,0,-1.3333333,181.88533,262.20267)" />
    <path
       id="path47"
       d="M 51.5708,116.45015 V -16.73694"
       style="fill:none;stroke:#000000;stroke-width:0.3985;stroke-linecap:butt;stroke-linejoin:miter;stroke-miterlimit:10;stroke-dasharray:2.98883, 2.98883;stroke-dashoffset:0;stroke-opacity:1"
       transform="matrix(1.3333333,0,0,-1.3333333,181.88533,262.20267)" />
    <path
       id="path48"
       d="M 0,133.1871 51.5708,116.45015"
       style="fill:none;stroke:#000000;stroke-width:0.3985;stroke-linecap:butt;stroke-linejoin:miter;stroke-miterlimit:10;stroke-dasharray:2.98883, 2.98883;stroke-dashoffset:0;stroke-opacity:1"
       transform="matrix(1.3333333,0,0,-1.3333333,181.88533,262.20267)" />
    <path
       id="path49"
       d="M 1.3258259,-0.83107143 C 1.8615402,-1.4069643 2.1494866,-1.6547321 2.5110938,-1.9627679 c 0,-0.013393 0.6160714,-0.5357142 0.9776785,-0.8973214 0.9441965,-0.9241071 1.1651786,-1.40625 1.1651786,-1.4464286 0,-0.1004464 -0.087054,-0.1004464 -0.1071429,-0.1004464 -0.073661,0 -0.1004464,0.020089 -0.1540178,0.1138393 -0.2946429,0.4754464 -0.5089286,0.6361607 -0.7433036,0.6361607 -0.2410714,0 -0.3616071,-0.1473214 -0.5089286,-0.3214286 -0.1941964,-0.2276785 -0.3616071,-0.4285714 -0.6897321,-0.4285714 -0.75,0 -1.2053571,0.9308036 -1.2053571,1.1383929 0,0.046875 0.026786,0.1071428 0.1205357,0.1071428 0.087053,0 0.1071428,-0.046875 0.1272321,-0.1071428 0.1875,-0.4620536 0.7700893,-0.46875 0.8504464,-0.46875 0.2075893,0 0.3950893,0.066964 0.6227679,0.1473214 0.4017857,0.1540179 0.5089286,0.1540179 0.7700893,0.1540179 -0.3616072,0.4285714 -1.1986607,1.1450892 -1.3861607,1.3058035 L 1.453058,-1.293125 c -0.67633925,0.66294643 -1.02455354,1.23214286 -1.02455354,1.29910714 0,0.10044643 0.10044643,0.10044643 0.12053572,0.10044643 0.0803571,0 0.10044643,-0.02008928 0.16071428,-0.12723214 C 0.93743304,-0.36901786 1.2387723,-0.636875 1.5535045,-0.636875 c 0.2276785,0 0.328125,0.0870536 0.5758928,0.375 0.1741072,0.21428571 0.3549107,0.36830357 0.6428572,0.36830357 0.984375,0 1.5602678,-1.26562497 1.5602678,-1.53348217 0,-0.046875 -0.040178,-0.1004464 -0.1205357,-0.1004464 -0.087054,0 -0.1071428,0.060268 -0.1339286,0.1339286 -0.234375,0.64285711 -0.8705357,0.83705354 -1.1986607,0.83705354 -0.2008928,0 -0.3816964,-0.0602679 -0.5892857,-0.13392857 -0.3348214,-0.12723214 -0.4888393,-0.16741071 -0.6964286,-0.16741071 -0.020089,0 -0.1808035,0 -0.2678571,0.0267857 z m 0,0"
       style="fill:#000000;fill-opacity:1;fill-rule:nonzero;stroke:none"
       aria-label="z"
       transform="matrix(2.3333333,0,0,2.3333333,161.84,89.626667)" />
    <path
       id="path50"
       d="m 38.61383,83.59299 c 0,2.20094 -1.78418,3.98511 -3.98511,3.98511 -2.20094,0 -3.9851,-1.78417 -3.9851,-3.98511 0,-2.20095 1.78416,-3.98511 3.9851,-3.98511 2.20093,0 3.98511,1.78416 3.98511,3.98511 z"
       style="fill:#ffffff;fill-opacity:1;fill-rule:nonzero;stroke:none"
       transform="matrix(1.3333333,0,0,-1.3333333,181.88533,262.20267)" />
    <path
       id="path51"
       d="m 2.98883,14.65065 c 0,1.65071 -1.33813,2.98883 -2.98883,2.98883 -1.6507,0 -2.98883,-1.33812 -2.98883,-2.98883 0,-1.6507 1.33813,-2.98883 2.98883,-2.98883 1.6507,0 2.98883,1.33813 2.98883,2.98883 z"
       style="fill:#ffffff;fill-opacity:1;fill-rule:nonzero;stroke:none"
       transform="matrix(1.3333333,0,0,-1.3333333,181.88533,262.20267)" />
    <path
       id="path52"
       d="m -11.55417,-13.66582 c 0,1.65072 -1.33812,2.98883 -2.98883,2.98883 -1.6507,0 -2.98883,-1.33811 -2.98883,-2.98883 0,-1.65069 1.33813,-2.98883 2.98883,-2.98883 1.65071,0 2.98883,1.33814 2.98883,2.98883 z"
       style="fill:#ffffff;fill-opacity:1;fill-rule:nonzero;stroke:none"
       transform="matrix(1.3333333,0,0,-1.3333333,181.88533,262.20267)" />
    <path
       id="path53"
       d="M -41.22992,-67.08963 49.46716,112.28954"
       style="fill:none;stroke:#ff0000;stroke-width:0.79701;stroke-linecap:butt;stroke-linejoin:miter;stroke-miterlimit:10;stroke-dasharray:none;stroke-opacity:1"
       transform="matrix(1.3333333,0,0,-1.3333333,181.88533,262.20267)" />
    <path
       id="path54"
       d="M 4.66248,0 C 3.28098,0.25902 1.0361,1.0361 -0.51805,1.94269 V -1.94269 C 1.0361,-1.0361 3.28098,-0.25902 4.66248,0"
       style="fill:#ff0000;fill-opacity:1;fill-rule:nonzero;stroke:none"
       transform="matrix(0.60158667,-1.1898133,-1.1898133,-0.60158667,247.84153,112.48331)" />
    <g
       id="g54"
       aria-label="⃗r&#10;1"
       transform="matrix(2.3333333,0,0,2.3333333,187.48233,186.91467)">
      <path
         id="path55"
         d="m 5.3496473,-5.9265982 c -0.140625,0.1272321 -0.46875,0.4084821 -0.46875,0.5825893 0,0.1004464 0.1004465,0.2008928 0.2008929,0.2008928 0.087054,0 0.140625,-0.066964 0.1875,-0.1272321 0.1205357,-0.1473214 0.3482143,-0.4285714 0.7901786,-0.6495536 0.066964,-0.040179 0.1674107,-0.087054 0.1674107,-0.2075893 0,-0.1004464 -0.066964,-0.1473214 -0.140625,-0.2008928 -0.2209822,-0.1473215 -0.328125,-0.328125 -0.4084822,-0.5691965 -0.020089,-0.087054 -0.060268,-0.2142857 -0.2008928,-0.2142857 -0.1339286,0 -0.1941965,0.1272322 -0.1941965,0.2075893 0,0.046875 0.080357,0.3683036 0.234375,0.5758929 H 2.1621473 c -0.1674107,0 -0.3482143,0 -0.3482143,0.2008928 0,0.2008929 0.1808036,0.2008929 0.3482143,0.2008929 z m 0,0"
         style="fill:#ff0000;fill-opacity:1;fill-rule:nonzero;stroke:none" />
      <path
         id="path56"
         d="m 0.73245982,-3.3082946 v -1.0982143 l -1.37946428,0.1138393 v 0.3080357 c 0.69642857,0 0.77678571,0.066964 0.77678571,0.5558035 v 2.67187504 c 0,0.44866072 -0.11383929,0.44866072 -0.77678571,0.44866072 V -2.5892857e-4 C -0.25861161,-0.00695536 0.21013839,-0.02704464 0.48469196,-0.02704464 c 0.40178572,0 0.87053574,0 1.26562504,0.0267857114 V -0.30829464 H 1.5427277 c -0.73660716,0 -0.75669645,-0.10714286 -0.75669645,-0.46875 V -2.3105268 c 0,-0.9910714 0.41517855,-1.875 1.17857145,-1.875 0.066964,0 0.087054,0 0.1071428,0.013393 -0.033482,0.0067 -0.2276785,0.1272321 -0.2276785,0.3883928 0,0.2745536 0.2075893,0.4285715 0.4285714,0.4285715 0.1741071,0 0.4285714,-0.1205358 0.4285714,-0.4419643 0,-0.3214286 -0.3080357,-0.609375 -0.7366071,-0.609375 -0.7299107,0 -1.09151788,0.6696428 -1.23214288,1.0982142 z m 0,0"
         style="fill:#ff0000;fill-opacity:1;fill-rule:nonzero;stroke:none" />
      <path
         id="path57"
         d="m 5.3094688,-2.938317 c 0,-0.1875 -0.013393,-0.1941964 -0.2075893,-0.1941964 -0.4486607,0.4352679 -1.0848215,0.4419643 -1.3727679,0.4419643 v 0.2544643 c 0.1674107,0 0.6294643,0 1.0111607,-0.1941965 v 3.55580362 c 0,0.22767858 0,0.32142858 -0.6964285,0.32142858 H 3.782683 v 0.2477678 c 0.1205358,-0.0067 0.984375,-0.026786 1.2388393,-0.026786 0.2142857,0 1.0915179,0.020089 1.2455357,0.026786 V 1.2469509 H 6.0058973 c -0.6964285,0 -0.6964285,-0.09375 -0.6964285,-0.32142858 z m 0,0"
         style="fill:#ff0000;fill-opacity:1;fill-rule:nonzero;stroke:none" />
    </g>
    <path
       id="path58"
       d="m 51.5708,116.45015 9.6186,19.02321"
       style="fill:none;stroke:#ff0000;stroke-width:0.79701;stroke-linecap:butt;stroke-linejoin:miter;stroke-miterlimit:10;stroke-dasharray:none;stroke-opacity:1"
       transform="matrix(1.3333333,0,0,-1.3333333,181.88533,262.20267)" />
    <path
       id="path59"
       d="M 4.66248,0 C 3.28098,0.25902 1.0361,1.0361 -0.51805,1.94269 V -1.94269 C 1.0361,-1.0361 3.28098,-0.25902 4.66248,0"
       style="fill:#ff0000;fill-opacity:1;fill-rule:nonzero;stroke:none"
       transform="matrix(0.60158667,-1.1898133,-1.1898133,-0.60158667,263.47119,81.571547)" />
    <g
       id="g59"
       aria-label="ˆr&#10;1"
       transform="matrix(2.3333333,0,0,2.3333333,256.865,63.862667)">
      <path
         id="path60"
         d="m 2.4903348,-6.9171473 -1.3325893,1.359375 0.1741072,0.1741071 1.1584821,-1.0111607 1.1450893,1.0111607 0.1808036,-0.1741071 z m 0,0"
         style="fill:#ff0000;fill-opacity:1;fill-rule:nonzero;stroke:none" />
      <path
         id="path61"
         d="m 0.42783482,-0.58902232 c -0.0334821,0.15401786 -0.0870536,0.38169643 -0.0870536,0.42857143 0,0.18080357 0.13392857,0.26785714 0.28794643,0.26785714 0.12053571,0 0.29464286,-0.08035714 0.36830357,-0.27455357 C 1.0171205,-0.20732589 1.351942,-1.5667009 1.3921205,-1.740808 c 0.080357,-0.3348215 0.2611608,-1.03125 0.3214286,-1.2991072 0.040179,-0.1272321 0.3214286,-0.5959821 0.5558036,-0.8169643 0.080357,-0.066964 0.3683036,-0.328125 0.796875,-0.328125 0.2611607,0 0.4084821,0.1205358 0.421875,0.1205358 -0.3013393,0.046875 -0.5223214,0.2879464 -0.5223214,0.5491071 0,0.1607143 0.1138392,0.3482143 0.3816964,0.3482143 0.2678571,0 0.5491071,-0.2276786 0.5491071,-0.5892857 0,-0.3482143 -0.3214285,-0.6495536 -0.8303571,-0.6495536 -0.6428572,0 -1.0848214,0.4888393 -1.2723214,0.7700893 -0.080357,-0.4486607 -0.4419643,-0.7700893 -0.91071434,-0.7700893 -0.45535714,0 -0.64285714,0.3883929 -0.73660714,0.5691964 -0.18080357,0.3415179 -0.30803571,0.9375 -0.30803571,0.9642857 0,0.1004465 0.10044643,0.1004465 0.12053571,0.1004465 0.10044643,0 0.10714286,-0.0067 0.16741072,-0.2276786 0.17410714,-0.7098214 0.36830357,-1.1852679 0.72991071,-1.1852679 0.16741075,0 0.30803575,0.080357 0.30803575,0.4553572 0,0.2142857 -0.026786,0.3214286 -0.1607143,0.8370536 z m 0,0"
         style="fill:#ff0000;fill-opacity:1;fill-rule:nonzero;stroke:none" />
      <path
         id="path62"
         d="m 6.3826339,-2.9394687 c 0,-0.1875 -0.013393,-0.1941965 -0.2075893,-0.1941965 -0.4486607,0.4352679 -1.0848214,0.4419643 -1.3727678,0.4419643 v 0.2544643 c 0.1674107,0 0.6294643,0 1.0111607,-0.1941964 v 3.55580354 c 0,0.22767856 0,0.32142856 -0.6964286,0.32142856 H 4.8558482 V 1.493567 c 0.1205357,-0.0067 0.984375,-0.026786 1.2388393,-0.026786 0.2142857,0 1.0915179,0.020089 1.2455357,0.026786 V 1.2457991 H 7.0790625 c -0.6964286,0 -0.6964286,-0.09375 -0.6964286,-0.32142856 z m 0,0"
         style="fill:#ff0000;fill-opacity:1;fill-rule:nonzero;stroke:none" />
    </g>
    <path
       id="path63"
       d="M 171.96844,99.77531 56.18909,115.81058"
       style="fill:none;stroke:#ff0000;stroke-width:0.79701;stroke-linecap:butt;stroke-linejoin:miter;stroke-miterlimit:10;stroke-dasharray:none;stroke-opacity:1"
       transform="matrix(1.3333333,0,0,-1.3333333,181.88533,262.20267)" />
    <path
       id="path64"
       d="M 4.66248,0 C 3.28098,0.25902 1.0361,1.0361 -0.51805,1.94269 V -1.94269 C 1.0361,-1.0361 3.28098,-0.25902 4.66248,0"
       style="fill:#ff0000;fill-opacity:1;fill-rule:nonzero;stroke:none"
       transform="matrix(-1.3206933,-0.18290667,-0.18290667,1.3206933,256.80412,107.78859)" />
    <g
       id="g64"
       aria-label="⃗r&#10;N"
       transform="matrix(2.3333333,0,0,2.3333333,323.31167,105.89067)">
      <path
         id="path65"
         d="m 5.3508036,-5.9263571 c -0.140625,0.1272321 -0.46875,0.4084821 -0.46875,0.5825892 0,0.1004465 0.1004464,0.2008929 0.2008928,0.2008929 0.087054,0 0.140625,-0.066964 0.1875,-0.1272321 0.1205357,-0.1473215 0.3482143,-0.4285715 0.7901786,-0.6495536 0.066964,-0.040179 0.1674107,-0.087054 0.1674107,-0.2075893 0,-0.1004464 -0.066964,-0.1473214 -0.140625,-0.2008929 -0.2209821,-0.1473214 -0.328125,-0.328125 -0.4084821,-0.5691964 -0.020089,-0.087054 -0.060268,-0.2142857 -0.2008929,-0.2142857 -0.1339286,0 -0.1941964,0.1272321 -0.1941964,0.2075893 0,0.046875 0.080357,0.3683036 0.234375,0.5758928 H 2.1633036 c -0.1674107,0 -0.3482143,0 -0.3482143,0.2008929 0,0.2008929 0.1808036,0.2008929 0.3482143,0.2008929 z m 0,0"
         style="fill:#ff0000;fill-opacity:1;fill-rule:nonzero;stroke:none" />
      <path
         id="path66"
         d="m -0.81158482,-3.3080536 v -1.0982143 l -1.37946428,0.1138393 v 0.3080357 c 0.6964286,0 0.7767857,0.066964 0.7767857,0.5558036 v 2.67187501 c 0,0.44866072 -0.1138393,0.44866072 -0.7767857,0.44866072 V -1.7857143e-5 C -1.8026562,-0.00671429 -1.3339062,-0.02680357 -1.0593527,-0.02680357 c 0.40178574,0 0.87053574,0 1.26562502,0.02678571286 V -0.30805357 h -0.20758928 c -0.73660715,0 -0.75669643,-0.10714286 -0.75669643,-0.46875 V -2.3102857 c 0,-0.9910714 0.41517857,-1.875 1.17857143,-1.875 0.0669643,0 0.0870536,0 0.10714285,0.013393 -0.0334821,0.0067 -0.22767857,0.1272322 -0.22767857,0.3883929 0,0.2745536 0.20758929,0.4285714 0.42857143,0.4285714 0.17410714,0 0.42857145,-0.1205357 0.42857145,-0.4419643 0,-0.3214285 -0.30803574,-0.609375 -0.73660716,-0.609375 -0.72991072,0 -1.09151786,0.6696429 -1.23214286,1.0982141 z m 0,0"
         style="fill:#ff0000;fill-opacity:1;fill-rule:nonzero;stroke:none" />
      <path
         id="path67"
         d="m 7.2408705,-2.5111786 c 0.073661,-0.2611607 0.1808036,-0.4888393 0.7433036,-0.5089285 0.033482,0 0.1339286,-0.0067 0.1339286,-0.1473215 0,-0.046875 -0.033482,-0.1004464 -0.1004464,-0.1004464 -0.234375,0 -0.4888393,0.026786 -0.7299108,0.026786 -0.1674107,0 -0.5691964,-0.026786 -0.7366071,-0.026786 -0.033482,0 -0.140625,0 -0.140625,0.1540179 0,0.087054 0.09375,0.09375 0.1540179,0.09375 0.328125,0.013393 0.4486607,0.1138392 0.4486607,0.2879464 0,0.053571 -0.0067,0.09375 -0.026786,0.1674107 L 6.2230134,0.47542857 4.4551563,-3.1473393 C 4.3948884,-3.267875 4.3814955,-3.267875 4.2140848,-3.267875 H 3.263192 c -0.1339286,0 -0.2276786,0 -0.2276786,0.1540179 0,0.09375 0.087054,0.09375 0.234375,0.09375 0.1473214,0 0.3013393,0.013393 0.4419643,0.040179 L 2.7810491,0.74998214 C 2.7207813,1.0111429 2.6002455,1.2187321 2.0578348,1.2455179 c -0.053571,0 -0.1473214,0.0067 -0.1473214,0.140625 0,0.080357 0.053571,0.1071428 0.1004464,0.1071428 0.234375,0 0.4888393,-0.026786 0.7299107,-0.026786 0.1674108,0 0.5691965,0.026786 0.7366072,0.026786 0.066964,0 0.140625,-0.033482 0.140625,-0.1473214 0,-0.09375 -0.087054,-0.1004464 -0.1607143,-0.1004464 C 3.0154241,1.2254286 3.0154241,1.044625 3.0154241,0.950875 c 0,-0.0267857 0,-0.0669643 0.033482,-0.17410714 L 3.9395313,-2.7924286 5.9752455,1.37275 c 0.053572,0.1138393 0.080357,0.1205357 0.1540179,0.1205357 0.1071429,0 0.1071429,-0.020089 0.140625,-0.1473214 z m 0,0"
         style="fill:#ff0000;fill-opacity:1;fill-rule:nonzero;stroke:none" />
    </g>
    <path
       id="path68"
       d="M 51.5708,116.45015 36.20226,118.5787"
       style="fill:none;stroke:#ff0000;stroke-width:0.79701;stroke-linecap:butt;stroke-linejoin:miter;stroke-miterlimit:10;stroke-dasharray:none;stroke-opacity:1"
       transform="matrix(1.3333333,0,0,-1.3333333,181.88533,262.20267)" />
    <path
       id="path69"
       d="M 4.66248,0 C 3.28098,0.25902 1.0361,1.0361 -0.51805,1.94269 V -1.94269 C 1.0361,-1.0361 3.28098,-0.25902 4.66248,0"
       style="fill:#ff0000;fill-opacity:1;fill-rule:nonzero;stroke:none"
       transform="matrix(-1.32068,-0.18288,-0.18288,1.32068,230.15501,104.09773)" />
    <g
       id="g69"
       aria-label="ˆr&#10;N"
       transform="matrix(2.3333333,0,0,2.3333333,196.24233,110.68267)">
      <path
         id="path70"
         d="m 2.4910089,-6.9170134 -1.3325893,1.359375 0.1741072,0.1741072 1.1584821,-1.0111608 1.1450893,1.0111608 0.1808036,-0.1741072 z m 0,0"
         style="fill:#ff0000;fill-opacity:1;fill-rule:nonzero;stroke:none" />
      <path
         id="path71"
         d="m 0.42850893,-0.58888839 c -0.0334821,0.15401785 -0.0870536,0.38169643 -0.0870536,0.42857143 0,0.18080357 0.13392857,0.26785714 0.28794643,0.26785714 0.12053571,0 0.29464285,-0.08035714 0.36830357,-0.27455357 0.0200892,-0.0401786 0.35491077,-1.39955361 0.39508927,-1.57366071 0.080357,-0.3348214 0.2611608,-1.03125 0.3214286,-1.2991071 0.040179,-0.1272322 0.3214286,-0.5959822 0.5558036,-0.8169643 0.080357,-0.066964 0.3683036,-0.328125 0.796875,-0.328125 0.2611607,0 0.4084821,0.1205357 0.421875,0.1205357 -0.3013393,0.046875 -0.5223214,0.2879464 -0.5223214,0.5491071 0,0.1607143 0.1138392,0.3482143 0.3816964,0.3482143 0.2678571,0 0.5491071,-0.2276786 0.5491071,-0.5892857 0,-0.3482143 -0.3214285,-0.6495536 -0.8303571,-0.6495536 -0.6428572,0 -1.0848214,0.4888393 -1.2723214,0.7700893 -0.080357,-0.4486607 -0.4419643,-0.7700893 -0.91071436,-0.7700893 -0.45535714,0 -0.64285714,0.3883929 -0.73660714,0.5691965 -0.18080357,0.3415178 -0.30803572,0.9375 -0.30803572,0.9642857 0,0.1004464 0.10044643,0.1004464 0.12053572,0.1004464 0.10044643,0 0.10714286,-0.0067 0.16741071,-0.2276786 0.17410715,-0.7098214 0.36830357,-1.1852678 0.72991072,-1.1852678 0.16741077,0 0.30803577,0.080357 0.30803577,0.4553571 0,0.2142857 -0.026786,0.3214286 -0.1607143,0.8370536 z m 0,0"
         style="fill:#ff0000;fill-opacity:1;fill-rule:nonzero;stroke:none" />
      <path
         id="path72"
         d="m 9.8587545,-2.5090893 c 0.073661,-0.2611607 0.1808035,-0.4888393 0.7433035,-0.5089286 0.03348,0 0.133929,-0.0067 0.133929,-0.1473214 0,-0.046875 -0.03348,-0.1004464 -0.100447,-0.1004464 -0.234375,0 -0.488839,0.026786 -0.7299105,0.026786 -0.1674107,0 -0.5691965,-0.026786 -0.7366072,-0.026786 -0.033482,0 -0.140625,0 -0.140625,0.1540178 0,0.087054 0.09375,0.09375 0.1540179,0.09375 0.328125,0.013393 0.4486607,0.1138393 0.4486607,0.2879465 0,0.053571 -0.0067,0.09375 -0.026786,0.1674107 L 8.8408973,0.47751786 7.0730402,-3.14525 C 7.0127723,-3.2657857 6.9993795,-3.2657857 6.8319688,-3.2657857 H 5.8810759 c -0.1339286,0 -0.2276786,0 -0.2276786,0.1540178 0,0.09375 0.087054,0.09375 0.234375,0.09375 0.1473215,0 0.3013393,0.013393 0.4419643,0.040179 L 5.398933,0.75207143 C 5.3386652,1.0132321 5.2181295,1.2208214 4.6757188,1.2476071 c -0.053572,0 -0.1473215,0.0067 -0.1473215,0.140625 0,0.080357 0.053572,0.1071429 0.1004465,0.1071429 0.234375,0 0.4888392,-0.026786 0.7299107,-0.026786 0.1674107,0 0.5691964,0.026786 0.7366071,0.026786 0.066964,0 0.140625,-0.033482 0.140625,-0.1473214 0,-0.09375 -0.087054,-0.1004465 -0.1607143,-0.1004465 C 5.633308,1.2275179 5.633308,1.0467143 5.633308,0.95296429 c 0,-0.0267857 0,-0.0669643 0.033482,-0.17410715 L 6.557415,-2.7903393 8.5931293,1.3748393 c 0.053571,0.1138393 0.080357,0.1205357 0.1540178,0.1205357 0.1071429,0 0.1071429,-0.020089 0.140625,-0.1473214 z m 0,0"
         style="fill:#ff0000;fill-opacity:1;fill-rule:nonzero;stroke:none" />
    </g>
  </g>
</svg>
