<?xml version="1.0" encoding="UTF-8" standalone="no"?>
<!-- Created with Inkscape (http://www.inkscape.org/) -->

<svg
   version="1.1"
   id="svg1"
   width="462.04401"
   height="39.490665"
   viewBox="0 0 462.04401 39.490665"
   xmlns="http://www.w3.org/2000/svg"
   xmlns:svg="http://www.w3.org/2000/svg">
  <defs
     id="defs1" />
  <g
     id="g1">
    <path
       id="path1"
       d="M 2.83484,0 C 2.83484,3.13109 1.56564,5.66927 0,5.66927 -1.56564,5.66927 -2.83484,3.13109 -2.83484,0 c 0,-3.13109 1.2692,-5.66927 2.83484,-5.66927 1.56564,0 2.83484,2.53818 2.83484,5.66927 z"
       style="fill:none;stroke:#000000;stroke-width:0.3985;stroke-linecap:butt;stroke-linejoin:miter;stroke-miterlimit:10;stroke-dasharray:none;stroke-opacity:1"
       transform="matrix(1.3333333,0,0,-1.3333333,268.81733,27.681333)" />
    <path
       id="path2"
       d="m -141.73404,5.66927 c -1.56566,0 -2.83486,-2.53818 -2.83486,-5.66927 0,-3.13109 1.2692,-5.66927 2.83486,-5.66927"
       style="fill:none;stroke:#000000;stroke-width:0.3985;stroke-linecap:butt;stroke-linejoin:miter;stroke-miterlimit:10;stroke-dasharray:none;stroke-opacity:1"
       transform="matrix(1.3333333,0,0,-1.3333333,268.81733,27.681333)" />
    <path
       id="path3"
       d="m -113.38724,5.66927 c -1.56564,0 -2.83484,-2.53818 -2.83484,-5.66927 0,-3.13109 1.2692,-5.66927 2.83484,-5.66927"
       style="fill:none;stroke:#000000;stroke-width:0.3985;stroke-linecap:butt;stroke-linejoin:miter;stroke-miterlimit:10;stroke-dasharray:none;stroke-opacity:1"
       transform="matrix(1.3333333,0,0,-1.3333333,268.81733,27.681333)" />
    <path
       id="path4"
       d="m -85.04042,5.66927 c -1.56566,0 -2.83485,-2.53818 -2.83485,-5.66927 0,-3.13109 1.26919,-5.66927 2.83485,-5.66927"
       style="fill:none;stroke:#000000;stroke-width:0.3985;stroke-linecap:butt;stroke-linejoin:miter;stroke-miterlimit:10;stroke-dasharray:none;stroke-opacity:1"
       transform="matrix(1.3333333,0,0,-1.3333333,268.81733,27.681333)" />
    <path
       id="path5"
       d="m -56.69362,5.66927 c -1.56564,0 -2.83484,-2.53818 -2.83484,-5.66927 0,-3.13109 1.2692,-5.66927 2.83484,-5.66927"
       style="fill:none;stroke:#000000;stroke-width:0.3985;stroke-linecap:butt;stroke-linejoin:miter;stroke-miterlimit:10;stroke-dasharray:none;stroke-opacity:1"
       transform="matrix(1.3333333,0,0,-1.3333333,268.81733,27.681333)" />
    <path
       id="path6"
       d="m -28.3468,5.66927 c -1.56566,0 -2.83486,-2.53818 -2.83486,-5.66927 0,-3.13109 1.2692,-5.66927 2.83486,-5.66927"
       style="fill:none;stroke:#000000;stroke-width:0.3985;stroke-linecap:butt;stroke-linejoin:miter;stroke-miterlimit:10;stroke-dasharray:none;stroke-opacity:1"
       transform="matrix(1.3333333,0,0,-1.3333333,268.81733,27.681333)" />
    <path
       id="path7"
       d="M -141.73404,5.66927 H 0"
       style="fill:none;stroke:#000000;stroke-width:0.3985;stroke-linecap:butt;stroke-linejoin:miter;stroke-miterlimit:10;stroke-dasharray:none;stroke-opacity:1"
       transform="matrix(1.3333333,0,0,-1.3333333,268.81733,27.681333)" />
    <path
       id="path8"
       d="M -141.73404,-5.66927 H 0"
       style="fill:none;stroke:#000000;stroke-width:0.3985;stroke-linecap:butt;stroke-linejoin:miter;stroke-miterlimit:10;stroke-dasharray:none;stroke-opacity:1"
       transform="matrix(1.3333333,0,0,-1.3333333,268.81733,27.681333)" />
    <path
       id="path9"
       d="M 0,0 H 141.73404"
       style="fill:none;stroke:#0000ff;stroke-width:0.3985;stroke-linecap:butt;stroke-linejoin:miter;stroke-miterlimit:10;stroke-dasharray:0.3985, 1.99255;stroke-dashoffset:0;stroke-opacity:1"
       transform="matrix(1.3333333,0,0,-1.3333333,268.81733,27.681333)" />
    <path
       id="path10"
       d="m -198.42766,0 h 53.85876"
       style="fill:none;stroke:#0000ff;stroke-width:0.3985;stroke-linecap:butt;stroke-linejoin:miter;stroke-miterlimit:10;stroke-dasharray:0.3985, 1.99255;stroke-dashoffset:0;stroke-opacity:1"
       transform="matrix(1.3333333,0,0,-1.3333333,268.81733,27.681333)" />
    <path
       id="path11"
       d="m -125.56807,0 c 0,1.10046 -0.89209,1.99255 -1.99255,1.99255 -1.10048,0 -1.99256,-0.89209 -1.99256,-1.99255 0,-1.10046 0.89208,-1.99255 1.99256,-1.99255 1.10046,0 1.99255,0.89209 1.99255,1.99255 z"
       style="fill:#ff0000;fill-opacity:1;fill-rule:nonzero;stroke:none"
       transform="matrix(1.3333333,0,0,-1.3333333,268.81733,27.681333)" />
    <path
       id="path12"
       d="m -97.22127,0 c 0,1.10046 -0.89207,1.99255 -1.99255,1.99255 -1.10047,0 -1.99256,-0.89209 -1.99256,-1.99255 0,-1.10046 0.89209,-1.99255 1.99256,-1.99255 1.10048,0 1.99255,0.89209 1.99255,1.99255 z"
       style="fill:#ff0000;fill-opacity:1;fill-rule:nonzero;stroke:none"
       transform="matrix(1.3333333,0,0,-1.3333333,268.81733,27.681333)" />
    <path
       id="path13"
       d="m -68.87445,0 c 0,1.10046 -0.89209,1.99255 -1.99255,1.99255 -1.10048,0 -1.99256,-0.89209 -1.99256,-1.99255 0,-1.10046 0.89208,-1.99255 1.99256,-1.99255 1.10046,0 1.99255,0.89209 1.99255,1.99255 z"
       style="fill:#ff0000;fill-opacity:1;fill-rule:nonzero;stroke:none"
       transform="matrix(1.3333333,0,0,-1.3333333,268.81733,27.681333)" />
    <path
       id="path14"
       d="m -40.52765,0 c 0,1.10046 -0.89207,1.99255 -1.99255,1.99255 -1.10047,0 -1.99256,-0.89209 -1.99256,-1.99255 0,-1.10046 0.89209,-1.99255 1.99256,-1.99255 1.10048,0 1.99255,0.89209 1.99255,1.99255 z"
       style="fill:#ff0000;fill-opacity:1;fill-rule:nonzero;stroke:none"
       transform="matrix(1.3333333,0,0,-1.3333333,268.81733,27.681333)" />
    <path
       id="path15"
       d="m -12.18083,0 c 0,1.10046 -0.89209,1.99255 -1.99256,1.99255 -1.10047,0 -1.99255,-0.89209 -1.99255,-1.99255 0,-1.10046 0.89208,-1.99255 1.99255,-1.99255 1.10047,0 1.99256,0.89209 1.99256,1.99255 z"
       style="fill:#ff0000;fill-opacity:1;fill-rule:nonzero;stroke:none"
       transform="matrix(1.3333333,0,0,-1.3333333,268.81733,27.681333)" />
    <g
       id="g15"
       aria-label="q&#10;1"
       transform="matrix(1.3333333,0,0,1.3333333,92.794667,14.132)">
      <path
         id="path16"
         d="m 4.4987266,-4.2884531 c 0,-0.046875 -0.023437,-0.1054688 -0.09375,-0.1054688 -0.1171875,0 -0.515625,0.3984375 -0.6796875,0.6914063 -0.2226563,-0.5390625 -0.609375,-0.703125 -0.9257813,-0.703125 -1.171875,0 -2.40234374,1.4765625 -2.40234374,2.9179687 0,0.98437502 0.5859375,1.59375002 1.31250004,1.59375002 0.4335937,0 0.8203125,-0.234375 1.1835937,-0.59765625 -0.09375,0.3515625 -0.421875,1.69921873 -0.4570312,1.79296873 -0.082031,0.2695313 -0.1523438,0.3164063 -0.7148438,0.328125 -0.1289062,0 -0.2226562,0 -0.2226562,0.1992188 0,0 0,0.1054687 0.1289062,0.1054687 0.3164063,0 0.6679688,-0.035156 0.9960938,-0.035156 0.328125,0 0.6914062,0.035156 1.0195312,0.035156 0.046875,0 0.1757813,0 0.1757813,-0.1992187 0,-0.1054688 -0.09375,-0.1054688 -0.2578125,-0.1054688 -0.46875,0 -0.46875,-0.070312 -0.46875,-0.1640625 0,-0.070312 0.011719,-0.1289062 0.035156,-0.2226562 z m -2.7539063,4.18359372 c -0.5976562,0 -0.6445312,-0.7734375 -0.6445312,-0.93750002 0,-0.4804687 0.2929687,-1.5703125 0.4570312,-1.9804687 0.3164063,-0.7382813 0.8320313,-1.1601563 1.2421875,-1.1601563 0.6445313,0 0.7851563,0.8085938 0.7851563,0.8789063 0,0.058594 -0.5507813,2.2382812 -0.5742188,2.2734375 -0.1523437,0.28124997 -0.7148437,0.92578122 -1.265625,0.92578122 z m 0,0"
         style="fill:#ff0000;fill-opacity:1;fill-rule:nonzero;stroke:none" />
      <path
         id="path17"
         d="m 6.7780234,-2.9349375 c 0,-0.1875 -0.011719,-0.1992188 -0.2109375,-0.1992188 -0.4453125,0.4335938 -1.078125,0.4453125 -1.359375,0.4453125 V -2.44275 c 0.1640625,0 0.6210938,0 1.0078125,-0.1875 v 3.55078125 c 0,0.23437495 0,0.32812495 -0.6914062,0.32812495 H 5.2545859 V 1.49475 c 0.1289063,-0.011719 0.984375,-0.023437 1.2421875,-0.023437 0.2109375,0 1.0898438,0.011719 1.2421875,0.023437 V 1.2486562 H 7.4811484 c -0.703125,0 -0.703125,-0.09375 -0.703125,-0.32812495 z m 0,0"
         style="fill:#ff0000;fill-opacity:1;fill-rule:nonzero;stroke:none" />
    </g>
    <g
       id="g17"
       aria-label="q&#10;2"
       transform="matrix(1.3333333,0,0,1.3333333,130.58933,14.132)">
      <path
         id="path18"
         d="m 4.5003828,-4.2884531 c 0,-0.046875 -0.023437,-0.1054688 -0.09375,-0.1054688 -0.1171875,0 -0.515625,0.3984375 -0.6796875,0.6914063 -0.2226562,-0.5390625 -0.609375,-0.703125 -0.9257812,-0.703125 -1.171875,0 -2.40234379,1.4765625 -2.40234379,2.9179687 0,0.98437502 0.5859375,1.59375002 1.31249999,1.59375002 0.4335938,0 0.8203125,-0.234375 1.1835938,-0.59765625 -0.09375,0.3515625 -0.421875,1.69921873 -0.4570313,1.79296873 -0.082031,0.2695313 -0.1523437,0.3164063 -0.7148437,0.328125 -0.1289063,0 -0.2226563,0 -0.2226563,0.1992188 0,0 0,0.1054687 0.1289063,0.1054687 0.3164062,0 0.6679687,-0.035156 0.9960937,-0.035156 0.328125,0 0.6914063,0.035156 1.0195313,0.035156 0.046875,0 0.1757812,0 0.1757812,-0.1992187 0,-0.1054688 -0.09375,-0.1054688 -0.2578125,-0.1054688 -0.46875,0 -0.46875,-0.070312 -0.46875,-0.1640625 0,-0.070312 0.011719,-0.1289062 0.035156,-0.2226562 z m -2.7539062,4.18359372 c -0.5976563,0 -0.6445313,-0.7734375 -0.6445313,-0.93750002 0,-0.4804687 0.2929688,-1.5703125 0.4570313,-1.9804687 0.3164062,-0.7382813 0.8320312,-1.1601563 1.2421875,-1.1601563 0.6445312,0 0.7851562,0.8085938 0.7851562,0.8789063 0,0.058594 -0.5507812,2.2382812 -0.5742187,2.2734375 -0.1523438,0.28124997 -0.7148438,0.92578122 -1.265625,0.92578122 z m 0,0"
         style="fill:#ff0000;fill-opacity:1;fill-rule:nonzero;stroke:none" />
      <path
         id="path19"
         d="M 7.9632734,0.229125 H 7.7288984 C 7.7054614,0.38146875 7.6468674,0.791625 7.5531172,0.8619375 7.4945232,0.8970938 6.9554609,0.8970938 6.8617109,0.8970938 H 5.5726484 c 0.7382813,-0.64453125 0.984375,-0.84375 1.3945313,-1.171875 0.515625,-0.41015625 0.9960937,-0.84375 0.9960937,-1.5 0,-0.84375 -0.7382812,-1.359375 -1.6289062,-1.359375 -0.8671875,0 -1.453125,0.609375 -1.453125,1.2421875 0,0.3632813 0.3046875,0.3984375 0.375,0.3984375 0.1640625,0 0.375,-0.1171875 0.375,-0.375 0,-0.1289062 -0.058594,-0.3632812 -0.421875,-0.3632812 0.2226562,-0.5039063 0.6914062,-0.65625 1.0195312,-0.65625 0.703125,0 1.0664063,0.5507812 1.0664063,1.1132812 0,0.609375 -0.4335938,1.08984375 -0.65625,1.3359375 l -1.6875,1.6640625 c -0.070312,0.058594 -0.070312,0.070312 -0.070312,0.2695313 h 2.8828125 z m 0,0"
         style="fill:#ff0000;fill-opacity:1;fill-rule:nonzero;stroke:none" />
    </g>
    <g
       id="g19"
       aria-label="q&#10;3"
       transform="matrix(1.3333333,0,0,1.3333333,168.38533,14.132)">
      <path
         id="path20"
         d="m 4.5010391,-4.2884531 c 0,-0.046875 -0.023437,-0.1054688 -0.09375,-0.1054688 -0.1171875,0 -0.515625,0.3984375 -0.6796875,0.6914063 -0.2226563,-0.5390625 -0.609375,-0.703125 -0.9257813,-0.703125 -1.171875,0 -2.40234374,1.4765625 -2.40234374,2.9179687 0,0.98437502 0.5859375,1.59375002 1.31250004,1.59375002 0.4335937,0 0.8203125,-0.234375 1.1835937,-0.59765625 -0.09375,0.3515625 -0.421875,1.69921873 -0.4570312,1.79296873 -0.082031,0.2695313 -0.1523438,0.3164063 -0.7148438,0.328125 -0.1289062,0 -0.2226562,0 -0.2226562,0.1992188 0,0 0,0.1054687 0.1289062,0.1054687 0.3164063,0 0.6679688,-0.035156 0.9960938,-0.035156 0.328125,0 0.6914062,0.035156 1.0195312,0.035156 0.046875,0 0.1757813,0 0.1757813,-0.1992187 0,-0.1054688 -0.09375,-0.1054688 -0.2578125,-0.1054688 -0.46875,0 -0.46875,-0.070312 -0.46875,-0.1640625 0,-0.070312 0.011719,-0.1289062 0.035156,-0.2226562 z m -2.7539063,4.18359372 c -0.5976562,0 -0.6445312,-0.7734375 -0.6445312,-0.93750002 0,-0.4804687 0.2929687,-1.5703125 0.4570312,-1.9804687 0.3164063,-0.7382813 0.8320313,-1.1601563 1.2421875,-1.1601563 0.6445313,0 0.7851563,0.8085938 0.7851563,0.8789063 0,0.058594 -0.5507813,2.2382812 -0.5742188,2.2734375 -0.1523437,0.28124997 -0.7148437,0.92578122 -1.265625,0.92578122 z m 0,0"
         style="fill:#ff0000;fill-opacity:1;fill-rule:nonzero;stroke:none" />
      <path
         id="path21"
         d="m 6.3467422,-0.83728125 c 0.5507812,0 0.9375,0.375 0.9375,1.125 0,0.86718745 -0.5039063,1.12499995 -0.9023438,1.12499995 -0.28125,0 -0.890625,-0.082031 -1.1835937,-0.49218745 0.328125,-0.0117188 0.3984375,-0.24609375 0.3984375,-0.38671875 0,-0.22265625 -0.1640625,-0.38671875 -0.3867188,-0.38671875 -0.1875,0 -0.3867187,0.1171875 -0.3867187,0.41015625 0,0.65625 0.7265625,1.078125 1.5703125,1.078125 0.9726562,0 1.640625,-0.64453125 1.640625,-1.34765625 0,-0.5390625 -0.4453125,-1.08984375 -1.21875,-1.2421875 C 7.5537734,-1.224 7.8115859,-1.7513438 7.8115859,-2.1732188 c 0,-0.5507812 -0.6328125,-0.9609375 -1.40625,-0.9609375 -0.7734375,0 -1.359375,0.375 -1.359375,0.9375 0,0.234375 0.1523438,0.3632813 0.3632813,0.3632813 0.2109375,0 0.3515625,-0.1640625 0.3515625,-0.3515625 0,-0.1992188 -0.140625,-0.3515625 -0.3515625,-0.3632813 0.234375,-0.3046875 0.7148437,-0.3867187 0.9726562,-0.3867187 0.3164063,0 0.7617188,0.1523437 0.7617188,0.7617187 0,0.2929688 -0.1054688,0.609375 -0.28125,0.8320313 -0.234375,0.2578125 -0.421875,0.28125 -0.7734375,0.2929687 -0.1757813,0.023437 -0.1875,0.023437 -0.2226563,0.023437 -0.011719,0 -0.070312,0.011719 -0.070312,0.09375 0,0.09375 0.058594,0.09375 0.1757813,0.09375 z m 0,0"
         style="fill:#ff0000;fill-opacity:1;fill-rule:nonzero;stroke:none" />
    </g>
    <g
       id="g21"
       aria-label="q&#10;4"
       transform="matrix(1.3333333,0,0,1.3333333,206.18,14.132)">
      <path
         id="path22"
         d="m 4.4997656,-4.2884531 c 0,-0.046875 -0.023437,-0.1054688 -0.09375,-0.1054688 -0.1171875,0 -0.515625,0.3984375 -0.6796875,0.6914063 -0.2226562,-0.5390625 -0.609375,-0.703125 -0.9257812,-0.703125 -1.171875,0 -2.40234377,1.4765625 -2.40234377,2.9179687 0,0.98437502 0.5859375,1.59375002 1.31249997,1.59375002 0.4335938,0 0.8203125,-0.234375 1.1835938,-0.59765625 -0.09375,0.3515625 -0.421875,1.69921873 -0.4570313,1.79296873 -0.082031,0.2695313 -0.1523437,0.3164063 -0.7148437,0.328125 -0.1289063,0 -0.2226563,0 -0.2226563,0.1992188 0,0 0,0.1054687 0.1289063,0.1054687 0.3164062,0 0.6679687,-0.035156 0.9960937,-0.035156 0.328125,0 0.6914063,0.035156 1.0195313,0.035156 0.046875,0 0.1757812,0 0.1757812,-0.1992187 0,-0.1054688 -0.09375,-0.1054688 -0.2578125,-0.1054688 -0.46875,0 -0.46875,-0.070312 -0.46875,-0.1640625 0,-0.070312 0.011719,-0.1289062 0.035156,-0.2226562 z m -2.7539062,4.18359372 c -0.5976563,0 -0.6445313,-0.7734375 -0.6445313,-0.93750002 0,-0.4804687 0.2929688,-1.5703125 0.4570313,-1.9804687 0.3164062,-0.7382813 0.8320312,-1.1601563 1.2421875,-1.1601563 0.6445312,0 0.7851562,0.8085938 0.7851562,0.8789063 0,0.058594 -0.5507812,2.2382812 -0.5742187,2.2734375 -0.1523438,0.28124997 -0.7148438,0.92578122 -1.265625,0.92578122 z m 0,0"
         style="fill:#ff0000;fill-opacity:1;fill-rule:nonzero;stroke:none" />
      <path
         id="path23"
         d="M 8.1384375,0.3463125 V 0.10021875 H 7.365 V -3.00525 c 0,-0.1523438 0,-0.1992188 -0.1523437,-0.1992188 -0.09375,0 -0.1171875,0 -0.1875,0.09375 L 4.7165625,0.10021875 V 0.3463125 h 2.0507813 v 0.57421875 c 0,0.23437495 0,0.32812495 -0.5625,0.32812495 h -0.1875 V 1.49475 C 6.3689063,1.483031 6.8142188,1.471313 7.0603125,1.471313 7.318125,1.471313 7.7634375,1.483032 8.115,1.49475 V 1.2486562 H 7.9275 c -0.5625,0 -0.5625,-0.09375 -0.5625,-0.32812495 V 0.3463125 Z M 6.8142188,-2.4544688 V 0.10021875 H 4.974375 Z m 0,0"
         style="fill:#ff0000;fill-opacity:1;fill-rule:nonzero;stroke:none" />
    </g>
    <g
       id="g23"
       aria-label="q&#10;5"
       transform="matrix(1.3333333,0,0,1.3333333,243.97467,14.132)">
      <path
         id="path24"
         d="m 4.5014219,-4.2884531 c 0,-0.046875 -0.023437,-0.1054688 -0.09375,-0.1054688 -0.1171875,0 -0.515625,0.3984375 -0.6796875,0.6914063 -0.2226563,-0.5390625 -0.609375,-0.703125 -0.9257813,-0.703125 -1.171875,0 -2.40234372,1.4765625 -2.40234372,2.9179687 0,0.98437502 0.5859375,1.59375002 1.31250002,1.59375002 0.4335937,0 0.8203125,-0.234375 1.1835937,-0.59765625 -0.09375,0.3515625 -0.421875,1.69921873 -0.4570312,1.79296873 -0.082031,0.2695313 -0.1523438,0.3164063 -0.7148438,0.328125 -0.1289062,0 -0.2226562,0 -0.2226562,0.1992188 0,0 0,0.1054687 0.1289062,0.1054687 0.3164063,0 0.6679688,-0.035156 0.9960938,-0.035156 0.328125,0 0.6914062,0.035156 1.0195312,0.035156 0.046875,0 0.1757813,0 0.1757813,-0.1992187 0,-0.1054688 -0.09375,-0.1054688 -0.2578125,-0.1054688 -0.46875,0 -0.46875,-0.070312 -0.46875,-0.1640625 0,-0.070312 0.011719,-0.1289062 0.035156,-0.2226562 z m -2.7539063,4.18359372 c -0.5976562,0 -0.6445312,-0.7734375 -0.6445312,-0.93750002 0,-0.4804687 0.2929687,-1.5703125 0.4570312,-1.9804687 0.3164063,-0.7382813 0.8320313,-1.1601563 1.2421875,-1.1601563 0.6445313,0 0.7851563,0.8085938 0.7851563,0.8789063 0,0.058594 -0.5507813,2.2382812 -0.5742188,2.2734375 -0.1523437,0.28124997 -0.7148437,0.92578122 -1.265625,0.92578122 z m 0,0"
         style="fill:#ff0000;fill-opacity:1;fill-rule:nonzero;stroke:none" />
      <path
         id="path25"
         d="m 5.5268125,-2.395875 c 0.3632813,0.09375 0.5625,0.09375 0.6796875,0.09375 0.9140625,0 1.4648438,-0.6328125 1.4648438,-0.7382813 0,-0.070312 -0.046875,-0.09375 -0.082031,-0.09375 -0.011719,0 -0.035156,0 -0.058594,0.023437 C 7.3666563,-3.052125 6.9916563,-2.9115 6.4760313,-2.9115 6.2768125,-2.9115 5.9135313,-2.923219 5.4565,-3.099 5.386188,-3.134156 5.374469,-3.134156 5.374469,-3.134156 c -0.09375,0 -0.09375,0.070312 -0.09375,0.1875 v 2.06250005 c 0,0.1171875 0,0.19921875 0.1054687,0.19921875 0.070312,0 0.070312,-0.0117188 0.140625,-0.10546875 C 5.8315,-1.1654063 6.253375,-1.224 6.4994688,-1.224 c 0.421875,0 0.609375,0.33984375 0.6445312,0.38671875 0.1171875,0.234375 0.1640625,0.50390625 0.1640625,0.90234375 0,0.2109375 0,0.62109375 -0.2109375,0.92578125 C 6.9213438,1.2486562 6.628375,1.4127187 6.2768125,1.4127187 5.8315,1.4127187 5.36275,1.1549062 5.1869688,0.697875 5.4565,0.7213125 5.5854063,0.54553125 5.5854063,0.35803125 c 0,-0.3046875 -0.2578125,-0.3515625 -0.3515625,-0.3515625 -0.011719,0 -0.3515625,0 -0.3515625,0.375 0,0.62109375 0.5742187,1.25390625 1.4179687,1.25390625 0.890625,0 1.6640625,-0.66796875 1.6640625,-1.546875 0,-0.78515625 -0.5976562,-1.5117188 -1.453125,-1.5117188 -0.3164062,0 -0.6796875,0.082031 -0.984375,0.3398438 z m 0,0"
         style="fill:#ff0000;fill-opacity:1;fill-rule:nonzero;stroke:none" />
    </g>
  </g>
</svg>
